<svg id="svg" version="1.1" xmlns="http://www.w3.org/2000/svg" xmlns:xlink="http://www.w3.org/1999/xlink" width="400" height="404.02684563758385" viewBox="0, 0, 400,404.02684563758385"><g id="svgg"><path id="path0" d="M189.200 89.273 C 187.990 89.475,185.380 89.983,183.400 90.402 C 181.420 90.820,179.170 91.260,178.400 91.379 C 176.714 91.640,170.735 93.440,168.842 94.257 C 168.094 94.579,165.887 95.373,163.937 96.021 C 161.986 96.669,160.078 97.370,159.695 97.579 C 159.313 97.788,157.470 98.612,155.600 99.410 C 153.730 100.208,151.660 101.099,151.000 101.389 C 150.340 101.680,148.900 102.280,147.800 102.723 C 142.492 104.859,141.256 105.371,139.400 106.203 C 138.300 106.696,136.230 107.584,134.800 108.178 C 133.370 108.771,131.840 109.413,131.400 109.605 C 130.960 109.798,128.170 110.965,125.200 112.199 C 122.230 113.434,119.215 114.704,118.500 115.022 C 116.185 116.051,114.629 116.696,113.200 117.216 C 106.266 119.744,98.000 125.523,98.000 127.845 C 98.000 128.006,97.717 128.450,97.371 128.832 C 94.521 131.982,93.545 139.136,94.376 150.800 C 94.894 158.083,95.737 170.630,96.390 180.800 C 96.623 184.430,97.084 191.090,97.414 195.600 C 97.745 200.110,98.186 206.590,98.395 210.000 C 98.605 213.410,98.962 218.810,99.189 222.000 C 99.416 225.190,99.788 230.410,100.014 233.600 C 100.241 236.790,100.596 242.280,100.802 245.800 C 101.009 249.320,101.363 254.630,101.590 257.600 C 101.816 260.570,102.189 265.880,102.418 269.400 C 103.355 283.764,107.314 290.680,116.839 294.590 C 118.248 295.168,119.940 295.892,120.600 296.199 C 121.260 296.506,124.860 297.946,128.600 299.399 C 132.340 300.853,136.030 302.294,136.800 302.601 C 139.637 303.732,145.424 306.091,146.200 306.433 C 146.640 306.626,148.440 307.311,150.200 307.955 C 151.960 308.598,154.930 309.789,156.800 310.601 C 180.818 321.028,196.187 315.931,194.044 298.251 C 193.800 296.243,193.416 290.910,193.190 286.400 C 192.964 281.890,192.691 277.796,192.583 277.303 C 192.475 276.810,192.119 271.950,191.791 266.503 C 191.464 261.056,190.941 252.820,190.629 248.200 C 190.318 243.580,189.863 236.740,189.619 233.000 C 189.375 229.260,188.914 222.780,188.594 218.600 C 188.275 214.420,187.912 208.750,187.787 206.000 C 187.663 203.250,187.397 199.560,187.195 197.800 C 186.776 194.126,185.811 177.835,185.863 175.307 C 185.926 172.305,187.417 170.897,192.600 168.945 C 194.140 168.365,196.155 167.555,197.078 167.145 C 198.001 166.735,199.030 166.400,199.364 166.400 C 199.968 166.400,201.755 165.707,204.350 164.466 C 209.048 162.219,211.991 155.947,211.419 149.400 C 211.285 147.860,211.007 143.720,210.803 140.200 C 210.475 134.559,209.649 122.413,208.421 105.200 C 207.470 91.864,201.801 87.166,189.200 89.273 M217.100 103.232 C 215.417 104.212,215.096 105.782,215.561 110.752 C 215.801 113.308,216.172 118.280,216.386 121.800 C 216.601 125.320,216.955 130.810,217.173 134.000 C 218.120 147.852,218.451 154.859,218.209 155.960 C 217.852 157.583,218.756 160.353,219.884 161.092 C 221.243 161.982,235.785 161.045,237.585 159.951 C 239.323 158.894,239.391 158.069,238.648 147.029 C 238.277 141.513,237.789 134.030,237.563 130.400 C 236.795 118.068,235.506 113.850,230.994 108.898 C 226.760 104.252,220.048 101.515,217.100 103.232 M244.800 167.208 C 240.070 167.617,232.690 168.238,228.400 168.589 C 220.537 169.231,218.906 169.449,213.800 170.539 C 208.222 171.729,200.282 175.982,195.608 180.285 C 192.563 183.087,192.525 183.611,193.992 202.400 C 194.224 205.370,194.597 210.590,194.821 214.000 C 195.044 217.410,195.494 224.160,195.820 229.000 C 196.147 233.840,196.684 242.120,197.015 247.400 C 197.830 260.423,198.256 263.980,199.144 265.200 C 203.329 270.948,216.869 258.648,221.381 245.000 C 223.871 237.470,242.595 232.826,254.200 236.861 C 254.860 237.091,256.030 237.414,256.800 237.579 C 260.004 238.266,263.200 240.781,263.200 242.613 C 263.200 242.739,264.023 244.104,265.030 245.646 C 278.063 265.612,299.257 267.112,303.951 248.400 C 305.764 241.172,305.918 224.871,304.220 220.056 C 303.935 219.249,303.576 217.782,303.422 216.795 C 303.127 214.906,302.901 214.246,299.591 205.600 C 297.820 200.975,296.559 198.208,293.756 192.800 C 288.078 181.844,278.868 173.301,267.400 168.352 C 263.448 166.646,255.789 166.259,244.800 167.208 M267.171 188.985 C 269.267 190.069,269.537 193.421,267.638 194.773 C 266.123 195.852,265.097 195.817,263.731 194.642 C 260.713 192.046,263.674 187.176,267.171 188.985 M213.406 194.153 C 213.710 194.619,214.086 195.792,214.241 196.761 C 214.631 199.209,215.543 200.000,217.971 200.000 C 219.624 200.000,220.076 200.170,220.771 201.054 C 222.706 203.513,221.147 206.800,218.047 206.800 C 215.890 206.800,215.200 207.588,215.200 210.048 C 215.200 213.554,213.605 215.290,210.988 214.633 C 209.712 214.312,208.403 212.209,208.401 210.474 C 208.399 208.139,207.906 207.688,205.598 207.910 C 200.615 208.389,199.675 201.863,204.600 200.981 C 207.206 200.514,207.597 200.166,207.623 198.286 C 207.683 193.737,211.397 191.083,213.406 194.153 M275.418 196.582 C 276.533 197.697,276.668 199.121,275.815 200.771 C 274.256 203.786,270.000 202.531,270.000 199.056 C 270.000 195.884,273.241 194.404,275.418 196.582 M261.631 197.569 C 263.771 199.709,262.643 202.971,259.600 203.445 C 256.395 203.944,254.869 198.922,257.700 197.196 C 259.465 196.119,260.256 196.195,261.631 197.569 M268.899 204.336 C 269.997 205.411,269.940 208.186,268.796 209.404 C 266.824 211.503,263.590 210.047,263.613 207.071 C 263.638 203.739,266.683 202.164,268.899 204.336 M239.000 243.060 C 231.919 244.541,227.997 247.040,226.370 251.107 C 221.641 262.923,212.180 272.315,202.046 275.251 C 199.146 276.091,198.691 277.223,198.967 282.915 C 199.395 291.753,198.154 291.461,224.800 288.992 C 234.258 288.116,238.356 286.543,242.176 282.321 C 246.936 277.061,247.294 274.843,246.169 257.600 C 245.221 243.094,244.625 241.884,239.000 243.060 " stroke="none" fill="#a48dfc" fill-rule="evenodd"></path><path id="path1" d="M187.800 18.800 C 187.949 19.574,187.739 19.600,181.377 19.600 C 176.022 19.600,174.800 19.704,174.800 20.157 C 174.800 21.032,173.889 21.181,170.168 20.919 L 166.706 20.675 166.999 21.596 L 167.291 22.517 163.846 22.238 C 160.547 21.970,160.400 21.993,160.400 22.779 C 160.400 23.529,160.157 23.600,157.600 23.600 C 155.473 23.600,154.800 23.734,154.800 24.157 C 154.800 24.965,153.829 25.216,151.791 24.937 C 150.123 24.708,150.000 24.754,150.000 25.601 C 150.000 26.453,149.878 26.497,148.078 26.284 C 146.052 26.044,144.912 26.411,145.372 27.155 C 145.667 27.632,145.142 27.721,142.700 27.608 C 141.402 27.548,141.200 27.657,141.200 28.415 C 141.200 29.226,141.068 29.271,139.400 29.021 C 137.762 28.775,137.600 28.825,137.600 29.575 C 137.600 30.286,137.351 30.400,135.800 30.400 C 134.414 30.400,134.000 30.548,134.000 31.042 C 134.000 31.550,133.665 31.652,132.400 31.531 C 130.933 31.392,130.800 31.459,130.800 32.344 C 130.800 33.254,130.700 33.295,129.041 33.068 C 127.433 32.847,127.300 32.894,127.488 33.613 C 127.668 34.301,127.487 34.400,126.047 34.400 C 124.684 34.400,124.400 34.534,124.400 35.175 C 124.400 35.837,124.196 35.917,123.000 35.723 C 121.759 35.521,121.600 35.594,121.600 36.366 C 121.600 37.144,121.452 37.208,120.200 36.974 C 118.959 36.741,118.800 36.807,118.800 37.555 C 118.800 38.227,118.554 38.400,117.600 38.400 C 116.800 38.400,116.400 38.600,116.400 39.000 C 116.400 39.419,115.978 39.600,115.000 39.600 C 113.849 39.600,113.600 39.748,113.600 40.432 C 113.600 41.143,113.431 41.226,112.431 41.007 C 111.423 40.785,111.244 40.877,111.131 41.675 C 111.027 42.412,110.787 42.575,109.952 42.478 C 109.174 42.388,108.850 42.567,108.690 43.178 C 108.559 43.677,108.146 44.000,107.637 44.000 C 107.160 44.000,106.800 44.258,106.800 44.600 C 106.800 44.995,106.405 45.200,105.647 45.200 C 104.853 45.200,104.432 45.435,104.296 45.954 C 104.151 46.511,103.839 46.658,103.106 46.518 C 102.345 46.373,102.061 46.525,101.893 47.164 C 101.773 47.624,101.388 48.000,101.037 48.000 C 100.687 48.000,100.400 48.294,100.400 48.652 C 100.400 49.176,100.120 49.259,98.980 49.074 C 97.708 48.868,97.586 48.925,97.807 49.622 C 97.994 50.211,97.865 50.400,97.274 50.400 C 96.818 50.400,96.402 50.749,96.274 51.238 C 96.089 51.946,95.861 52.033,94.800 51.800 C 93.739 51.567,93.511 51.654,93.326 52.362 C 93.205 52.823,92.948 53.200,92.753 53.200 C 92.559 53.200,92.400 53.458,92.400 53.773 C 92.400 54.088,92.040 54.460,91.600 54.600 C 91.160 54.740,90.800 55.120,90.800 55.445 C 90.800 55.904,90.487 55.978,89.400 55.774 C 88.159 55.541,88.000 55.607,88.000 56.355 C 88.000 56.839,87.744 57.200,87.400 57.200 C 87.070 57.200,86.800 57.451,86.800 57.757 C 86.800 58.064,86.530 58.418,86.200 58.545 C 85.870 58.671,85.600 59.051,85.600 59.387 C 85.600 59.724,85.339 60.000,85.020 60.000 C 84.701 60.000,84.292 60.264,84.111 60.587 C 83.931 60.909,83.202 61.218,82.492 61.272 C 81.756 61.328,81.200 61.592,81.200 61.885 C 81.200 62.168,80.930 62.400,80.600 62.400 C 80.270 62.400,80.000 62.649,80.000 62.953 C 80.000 63.258,79.640 63.601,79.200 63.716 C 78.760 63.831,78.400 64.212,78.400 64.563 C 78.400 64.913,78.130 65.200,77.800 65.200 C 77.470 65.200,77.200 65.470,77.200 65.800 C 77.200 66.130,76.930 66.400,76.600 66.400 C 76.267 66.400,76.000 66.756,76.000 67.200 C 76.000 67.644,75.733 68.000,75.400 68.000 C 75.070 68.000,74.800 68.249,74.800 68.553 C 74.800 68.858,74.440 69.201,74.000 69.316 C 73.560 69.431,73.200 69.812,73.200 70.163 C 73.200 70.513,72.930 70.800,72.600 70.800 C 72.270 70.800,72.000 71.070,72.000 71.400 C 72.000 71.730,71.730 72.000,71.400 72.000 C 71.070 72.000,70.800 72.258,70.800 72.573 C 70.800 72.888,70.440 73.260,70.000 73.400 C 69.560 73.540,69.200 73.933,69.200 74.274 C 69.200 74.682,68.945 74.827,68.451 74.697 C 67.874 74.547,67.747 74.674,67.897 75.251 C 68.043 75.806,67.878 76.000,67.259 76.000 C 66.682 76.000,66.496 76.185,66.655 76.600 C 66.820 77.028,66.615 77.202,65.943 77.206 C 65.424 77.209,64.730 77.406,64.400 77.644 C 63.894 78.008,63.909 78.040,64.500 77.850 C 64.885 77.726,65.200 77.799,65.200 78.013 C 65.200 78.226,64.840 78.400,64.400 78.400 C 63.867 78.400,63.600 78.667,63.600 79.200 C 63.600 79.644,63.333 80.000,63.000 80.000 C 62.670 80.000,62.400 80.270,62.400 80.600 C 62.400 80.930,62.130 81.200,61.800 81.200 C 61.470 81.200,61.200 81.455,61.200 81.767 C 61.200 82.078,60.975 82.424,60.700 82.535 C 60.300 82.696,60.300 82.743,60.700 82.768 C 61.417 82.814,61.320 84.000,60.600 84.000 C 60.267 84.000,60.000 84.356,60.000 84.800 C 60.000 85.244,59.733 85.600,59.400 85.600 C 59.070 85.600,58.800 85.870,58.800 86.200 C 58.800 86.533,58.444 86.800,58.000 86.800 C 57.556 86.800,57.200 87.067,57.200 87.400 C 57.200 87.733,56.844 88.000,56.400 88.000 C 55.956 88.000,55.600 88.267,55.600 88.600 C 55.600 88.930,55.330 89.200,55.000 89.200 C 54.670 89.200,54.400 89.374,54.400 89.587 C 54.400 89.801,54.670 89.871,55.000 89.745 C 55.380 89.599,55.600 89.750,55.600 90.157 C 55.600 90.511,55.420 90.800,55.200 90.800 C 54.980 90.800,54.800 91.070,54.800 91.400 C 54.800 91.767,54.426 92.000,53.837 92.000 C 53.055 92.000,52.916 92.158,53.096 92.846 C 53.287 93.577,53.193 93.652,52.399 93.400 C 51.535 93.125,51.494 93.192,51.709 94.516 C 51.897 95.677,51.803 95.958,51.169 96.124 C 50.746 96.235,50.400 96.591,50.400 96.916 C 50.400 97.241,50.033 97.603,49.584 97.720 C 48.933 97.890,48.820 98.142,49.027 98.967 C 49.330 100.173,48.201 100.495,47.858 99.300 C 47.748 98.915,47.755 99.275,47.873 100.100 C 48.064 101.428,47.992 101.600,47.245 101.600 C 46.566 101.600,46.400 101.845,46.400 102.847 C 46.400 103.852,46.260 104.057,45.678 103.904 C 45.074 103.747,44.985 103.913,45.132 104.919 C 45.291 105.999,45.218 106.098,44.415 105.888 C 43.586 105.671,43.540 105.754,43.779 107.027 C 44.004 108.227,43.933 108.400,43.218 108.400 C 42.576 108.400,42.400 108.658,42.400 109.600 C 42.400 110.489,42.213 110.800,41.680 110.800 C 41.093 110.800,40.991 111.058,41.124 112.200 C 41.247 113.251,41.138 113.600,40.687 113.600 C 40.357 113.600,39.975 114.044,39.839 114.586 C 39.673 115.247,39.396 115.496,38.996 115.343 C 38.534 115.166,38.400 115.449,38.400 116.604 C 38.400 117.920,38.302 118.068,37.561 117.874 C 36.793 117.673,36.744 117.774,36.985 119.058 C 37.211 120.267,37.130 120.493,36.402 120.684 C 35.844 120.829,35.579 121.193,35.623 121.752 C 35.738 123.235,35.615 123.600,35.000 123.600 C 34.564 123.600,34.400 124.050,34.400 125.247 C 34.400 126.727,34.314 126.871,33.553 126.672 C 32.765 126.466,32.724 126.564,32.963 128.060 C 33.189 129.475,33.118 129.696,32.373 129.891 C 31.692 130.069,31.560 130.347,31.701 131.310 C 31.836 132.227,31.704 132.552,31.139 132.700 C 30.562 132.851,30.400 133.278,30.400 134.647 C 30.400 136.158,30.285 136.400,29.565 136.400 C 28.810 136.400,28.756 136.556,29.005 138.027 C 29.249 139.476,29.184 139.679,28.413 139.881 C 27.709 140.065,27.559 140.378,27.612 141.554 C 27.712 143.751,27.649 144.000,27.000 144.000 C 26.323 144.000,26.255 144.297,26.382 146.700 C 26.462 148.208,26.374 148.400,25.598 148.400 C 24.779 148.400,24.742 148.525,25.004 150.427 C 25.257 152.269,25.206 152.473,24.441 152.673 C 23.695 152.868,23.600 153.187,23.600 155.493 C 23.600 157.916,23.544 158.079,22.782 157.879 C 21.989 157.672,21.972 157.773,22.242 161.095 L 22.520 164.525 21.602 164.285 C 20.687 164.045,20.685 164.053,20.917 167.340 C 21.150 170.645,20.874 171.940,20.045 171.428 C 19.728 171.232,19.600 172.539,19.600 175.976 C 19.600 179.871,19.491 180.800,19.033 180.800 C 18.108 180.800,18.092 181.162,18.311 197.211 C 18.505 211.430,18.468 212.675,17.832 213.311 C 17.453 213.690,17.336 214.000,17.571 214.000 C 17.847 214.000,18.000 215.411,18.000 217.963 C 18.000 221.728,18.040 221.915,18.800 221.716 C 19.569 221.515,19.600 221.704,19.600 226.553 C 19.600 230.878,19.690 231.600,20.230 231.600 C 20.723 231.600,20.845 232.010,20.794 233.500 C 20.635 238.133,20.743 238.800,21.652 238.800 C 22.466 238.800,22.491 238.924,22.227 241.600 C 21.966 244.250,21.996 244.400,22.776 244.400 C 23.522 244.400,23.600 244.642,23.600 246.953 C 23.600 249.098,23.718 249.538,24.337 249.700 C 24.973 249.866,25.049 250.202,24.888 252.146 C 24.712 254.269,24.753 254.400,25.597 254.400 C 26.447 254.400,26.479 254.509,26.222 256.560 C 25.981 258.488,26.030 258.713,26.676 258.660 C 27.266 258.611,27.423 258.951,27.522 260.500 C 27.608 261.834,27.816 262.400,28.222 262.400 C 28.657 262.400,28.800 262.954,28.800 264.649 C 28.800 266.485,28.899 266.816,29.337 266.452 C 30.112 265.809,30.400 266.299,30.400 268.267 C 30.400 269.541,30.559 270.000,31.000 270.000 C 31.417 270.000,31.600 270.419,31.600 271.371 C 31.600 272.344,31.798 272.779,32.282 272.873 C 32.838 272.980,32.943 273.389,32.852 275.102 C 32.752 276.994,32.822 277.200,33.570 277.200 C 34.226 277.200,34.400 277.452,34.400 278.400 C 34.400 279.200,34.600 279.600,35.000 279.600 C 35.419 279.600,35.600 280.022,35.600 281.000 C 35.600 282.003,35.777 282.400,36.225 282.400 C 36.581 282.400,36.820 282.702,36.779 283.100 C 36.614 284.726,36.795 285.126,37.600 284.916 C 38.291 284.735,38.400 284.904,38.400 286.153 C 38.400 287.173,38.577 287.600,39.000 287.600 C 39.419 287.600,39.600 288.022,39.600 289.000 C 39.600 289.978,39.781 290.400,40.200 290.400 C 40.567 290.400,40.800 290.774,40.800 291.363 C 40.800 292.128,40.964 292.282,41.600 292.116 C 42.274 291.940,42.400 292.104,42.400 293.153 C 42.400 293.995,42.595 294.400,43.000 294.400 C 43.419 294.400,43.600 294.822,43.600 295.800 C 43.600 296.778,43.781 297.200,44.200 297.200 C 44.530 297.200,44.800 297.470,44.800 297.800 C 44.800 298.133,45.156 298.400,45.600 298.400 C 46.248 298.400,46.400 298.667,46.400 299.800 C 46.400 300.778,46.581 301.200,47.000 301.200 C 47.380 301.200,47.612 301.603,47.632 302.300 C 47.649 302.905,47.754 303.175,47.865 302.900 C 48.221 302.017,49.263 302.332,49.184 303.300 C 49.060 304.834,49.179 305.200,49.800 305.200 C 50.130 305.200,50.400 305.540,50.400 305.956 C 50.400 306.430,50.661 306.690,51.100 306.656 C 51.657 306.611,51.774 306.865,51.674 307.900 C 51.569 308.987,51.684 309.200,52.374 309.200 C 52.933 309.200,53.200 309.458,53.200 310.000 C 53.200 310.444,53.467 310.800,53.800 310.800 C 54.130 310.800,54.400 311.070,54.400 311.400 C 54.400 311.730,54.749 312.000,55.175 312.000 C 55.837 312.000,55.917 312.204,55.723 313.400 C 55.522 314.633,55.597 314.800,56.348 314.800 C 56.839 314.800,57.200 315.054,57.200 315.400 C 57.200 315.730,57.470 316.000,57.800 316.000 C 58.130 316.000,58.400 316.270,58.400 316.600 C 58.400 316.933,58.756 317.200,59.200 317.200 C 59.733 317.200,60.000 317.467,60.000 318.000 C 60.000 318.444,60.267 318.800,60.600 318.800 C 61.019 318.800,61.200 319.222,61.200 320.200 C 61.200 321.178,61.381 321.600,61.800 321.600 C 62.130 321.600,62.400 321.870,62.400 322.200 C 62.400 322.530,62.670 322.800,63.000 322.800 C 63.330 322.800,63.600 323.070,63.600 323.400 C 63.600 323.733,63.956 324.000,64.400 324.000 C 64.933 324.000,65.200 324.267,65.200 324.800 C 65.200 325.244,65.467 325.600,65.800 325.600 C 66.130 325.600,66.400 325.870,66.400 326.200 C 66.400 326.530,66.670 326.800,67.000 326.800 C 67.330 326.800,67.600 327.070,67.600 327.400 C 67.600 327.733,67.956 328.000,68.400 328.000 C 68.858 328.000,69.200 328.267,69.200 328.624 C 69.200 328.993,69.012 329.131,68.738 328.962 C 68.452 328.785,68.385 328.852,68.562 329.138 C 68.719 329.392,69.197 329.600,69.624 329.600 C 70.121 329.600,70.400 329.874,70.400 330.363 C 70.400 330.928,70.607 331.071,71.200 330.916 C 71.756 330.770,72.000 330.904,72.000 331.353 C 72.000 331.709,72.270 332.000,72.600 332.000 C 72.930 332.000,73.200 332.289,73.200 332.643 C 73.200 333.059,72.982 333.202,72.579 333.047 C 72.223 332.911,72.063 332.978,72.203 333.205 C 72.337 333.422,72.887 333.600,73.424 333.600 C 74.025 333.600,74.400 333.831,74.400 334.200 C 74.400 334.533,74.756 334.800,75.200 334.800 C 75.733 334.800,76.000 335.067,76.000 335.600 C 76.000 336.044,76.267 336.400,76.600 336.400 C 76.930 336.400,77.200 336.670,77.200 337.000 C 77.200 337.330,77.470 337.600,77.800 337.600 C 78.130 337.600,78.400 337.870,78.400 338.200 C 78.400 338.533,78.756 338.800,79.200 338.800 C 79.733 338.800,80.000 339.067,80.000 339.600 C 80.000 340.248,80.267 340.400,81.400 340.400 C 82.451 340.400,82.800 340.570,82.800 341.080 C 82.800 341.609,82.693 341.653,82.320 341.280 C 81.727 340.687,81.200 340.660,81.200 341.224 C 81.200 341.457,81.368 341.544,81.572 341.417 C 81.777 341.291,82.047 341.353,82.173 341.556 C 82.298 341.759,82.761 341.831,83.200 341.716 C 83.756 341.570,84.000 341.704,84.000 342.153 C 84.000 342.545,84.334 342.800,84.847 342.800 C 85.496 342.800,85.645 342.986,85.484 343.600 C 85.327 344.200,85.472 344.400,86.061 344.400 C 86.516 344.400,86.736 344.580,86.583 344.827 C 86.438 345.062,86.697 345.353,87.160 345.474 C 87.622 345.594,88.000 345.942,88.000 346.247 C 88.000 346.612,88.475 346.800,89.400 346.800 C 90.533 346.800,90.800 346.952,90.800 347.600 C 90.800 348.044,91.067 348.400,91.400 348.400 C 91.730 348.400,92.000 348.670,92.000 349.000 C 92.000 349.330,92.270 349.600,92.600 349.600 C 92.930 349.600,93.200 349.870,93.200 350.200 C 93.200 350.619,93.622 350.800,94.600 350.800 C 95.733 350.800,96.000 350.952,96.000 351.600 C 96.000 352.044,96.267 352.400,96.600 352.400 C 96.930 352.400,97.200 352.670,97.200 353.000 C 97.200 353.419,97.622 353.600,98.600 353.600 C 99.733 353.600,100.000 353.752,100.000 354.400 C 100.000 354.844,100.267 355.200,100.600 355.200 C 100.930 355.200,101.200 355.470,101.200 355.800 C 101.200 356.219,101.622 356.400,102.600 356.400 C 103.578 356.400,104.000 356.581,104.000 357.000 C 104.000 357.419,104.422 357.600,105.400 357.600 C 106.423 357.600,106.800 357.774,106.800 358.247 C 106.800 358.697,106.556 358.830,105.999 358.684 C 105.559 358.569,105.300 358.638,105.423 358.837 C 105.546 359.037,106.177 359.200,106.824 359.200 C 107.603 359.200,108.000 359.403,108.000 359.800 C 108.000 360.219,108.422 360.400,109.400 360.400 C 110.378 360.400,110.800 360.581,110.800 361.000 C 110.800 361.330,111.049 361.600,111.353 361.600 C 111.658 361.600,112.001 361.960,112.116 362.400 C 112.231 362.840,112.567 363.186,112.863 363.168 C 113.267 363.145,113.276 363.087,112.900 362.935 C 112.197 362.651,112.275 361.600,113.000 361.600 C 113.344 361.600,113.600 361.961,113.600 362.445 C 113.600 363.193,113.759 363.259,115.000 363.026 C 116.229 362.796,116.400 362.864,116.400 363.582 C 116.400 364.224,116.658 364.400,117.600 364.400 C 118.400 364.400,118.800 364.600,118.800 365.000 C 118.800 365.419,119.222 365.600,120.200 365.600 C 121.694 365.600,122.213 366.581,120.900 366.924 C 120.515 367.025,121.145 367.128,122.300 367.154 C 123.879 367.188,124.400 367.349,124.400 367.800 C 124.400 368.219,124.822 368.400,125.800 368.400 C 126.778 368.400,127.200 368.581,127.200 369.000 C 127.200 369.400,127.600 369.600,128.400 369.600 C 129.348 369.600,129.600 369.774,129.600 370.430 C 129.600 371.178,129.806 371.248,131.698 371.148 C 133.411 371.057,133.820 371.162,133.927 371.718 C 134.028 372.241,134.482 372.400,135.876 372.400 C 137.521 372.400,137.673 372.479,137.475 373.234 C 137.270 374.018,137.371 374.052,139.186 373.802 C 141.167 373.529,142.286 374.120,141.151 374.839 C 140.803 375.059,141.538 375.190,143.143 375.194 C 145.237 375.199,145.645 375.306,145.455 375.800 C 145.266 376.293,145.660 376.400,147.659 376.400 C 149.947 376.400,150.080 376.451,149.870 377.253 C 149.655 378.076,149.736 378.097,152.175 377.847 C 154.515 377.607,154.720 377.650,154.922 378.425 C 155.110 379.142,155.420 379.253,157.071 379.196 C 160.051 379.093,160.400 379.156,160.400 379.800 C 160.400 380.283,161.022 380.400,163.600 380.400 C 166.683 380.400,167.918 381.023,166.300 381.761 C 166.025 381.887,167.837 381.881,170.326 381.749 C 174.781 381.513,174.855 381.523,175.088 382.413 C 175.322 383.308,175.378 383.315,180.362 383.086 C 186.006 382.826,187.756 383.015,187.436 383.851 C 187.260 384.310,189.429 384.400,200.600 384.400 C 212.324 384.400,213.946 384.326,213.745 383.800 C 213.546 383.282,214.412 383.200,220.113 383.200 C 226.151 383.200,226.706 383.141,226.656 382.500 C 226.605 381.866,227.037 381.808,231.200 381.881 C 233.730 381.925,235.485 381.867,235.100 381.751 C 233.148 381.166,234.481 380.429,237.700 380.316 C 240.079 380.232,240.972 380.060,240.900 379.700 C 240.827 379.333,241.657 379.200,244.018 379.200 C 246.860 379.200,247.221 379.118,247.118 378.500 C 247.014 377.884,247.297 377.817,249.473 377.938 C 251.816 378.070,251.934 378.033,251.726 377.238 C 251.552 376.572,251.690 376.400,252.402 376.400 C 253.153 376.400,253.217 376.497,252.800 377.000 C 252.140 377.795,252.948 377.795,253.743 377.000 C 254.073 376.670,254.806 376.400,255.371 376.400 C 256.019 376.400,256.400 376.178,256.400 375.800 C 256.400 375.332,256.939 375.200,258.849 375.200 C 260.912 375.200,261.224 375.111,260.830 374.636 C 260.471 374.204,260.474 374.002,260.841 373.775 C 261.118 373.604,261.550 373.791,261.861 374.215 C 262.157 374.621,262.400 374.739,262.400 374.476 C 262.400 374.214,262.850 374.000,263.400 374.000 C 263.950 374.000,264.400 373.809,264.400 373.576 C 264.400 373.343,264.580 373.264,264.800 373.400 C 265.020 373.536,265.200 373.457,265.200 373.224 C 265.200 372.660,264.673 372.687,264.080 373.280 C 263.707 373.653,263.600 373.609,263.600 373.080 C 263.600 372.531,263.984 372.400,265.600 372.400 C 267.111 372.400,267.600 372.253,267.600 371.800 C 267.600 371.369,268.040 371.200,269.163 371.200 C 270.550 371.200,270.701 371.106,270.507 370.365 C 270.338 369.721,270.461 369.549,271.044 369.611 C 273.036 369.824,274.400 369.575,274.400 369.000 C 274.400 368.600,274.800 368.400,275.600 368.400 C 276.400 368.400,276.800 368.200,276.800 367.800 C 276.800 367.369,277.240 367.200,278.363 367.200 C 279.728 367.200,279.899 367.099,279.716 366.400 C 279.535 365.709,279.704 365.600,280.953 365.600 C 281.973 365.600,282.400 365.423,282.400 365.000 C 282.400 364.163,283.501 364.246,283.724 365.100 C 283.898 365.767,283.909 365.767,283.954 365.100 C 283.979 364.715,284.270 364.400,284.600 364.400 C 284.930 364.400,285.200 364.076,285.200 363.680 C 285.200 363.093,285.458 362.991,286.600 363.124 C 287.809 363.265,288.000 363.173,288.000 362.444 C 288.000 361.746,288.242 361.600,289.400 361.600 C 290.378 361.600,290.800 361.419,290.800 361.000 C 290.800 360.600,291.200 360.400,292.000 360.400 C 292.800 360.400,293.200 360.200,293.200 359.800 C 293.200 359.424,293.579 359.200,294.214 359.200 C 295.104 359.200,295.176 359.102,294.800 358.400 C 294.407 357.666,294.496 357.599,295.886 357.594 C 296.719 357.591,297.670 357.394,298.000 357.156 C 298.506 356.792,298.491 356.760,297.900 356.950 C 297.515 357.074,297.200 357.001,297.200 356.787 C 297.200 356.574,297.830 356.400,298.600 356.400 C 299.578 356.400,300.000 356.219,300.000 355.800 C 300.000 355.470,300.270 355.200,300.600 355.200 C 300.939 355.200,301.200 354.842,301.200 354.375 C 301.200 353.829,301.437 353.574,301.900 353.621 C 303.360 353.769,304.000 353.580,304.000 353.000 C 304.000 352.670,304.270 352.400,304.600 352.400 C 304.933 352.400,305.200 352.044,305.200 351.600 C 305.200 350.952,305.467 350.800,306.600 350.800 C 307.578 350.800,308.000 350.619,308.000 350.200 C 308.000 349.870,308.270 349.600,308.600 349.600 C 308.930 349.600,309.200 349.330,309.200 349.000 C 309.200 348.596,309.625 348.390,310.500 348.368 C 311.215 348.351,311.575 348.246,311.300 348.135 C 310.287 347.726,310.782 346.800,312.013 346.800 C 312.721 346.800,313.321 346.551,313.455 346.200 C 313.582 345.870,313.936 345.600,314.243 345.600 C 314.549 345.600,314.800 345.330,314.800 345.000 C 314.800 344.670,315.070 344.400,315.400 344.400 C 315.733 344.400,316.000 344.044,316.000 343.600 C 316.000 343.147,316.267 342.800,316.614 342.800 C 317.113 342.800,317.147 342.968,316.792 343.700 C 316.372 344.566,316.380 344.570,316.980 343.821 C 317.323 343.393,317.501 342.718,317.375 342.321 C 317.184 341.718,317.380 341.600,318.573 341.600 C 319.521 341.600,320.000 341.414,320.000 341.047 C 320.000 340.742,320.360 340.399,320.800 340.284 C 321.240 340.169,321.600 339.788,321.600 339.437 C 321.600 339.087,321.870 338.800,322.200 338.800 C 322.530 338.800,322.800 338.530,322.800 338.200 C 322.800 337.870,323.070 337.600,323.400 337.600 C 323.730 337.600,324.000 337.330,324.000 337.000 C 324.000 336.667,324.356 336.400,324.800 336.400 C 325.333 336.400,325.600 336.133,325.600 335.600 C 325.600 335.156,325.867 334.800,326.200 334.800 C 326.530 334.800,326.800 334.530,326.800 334.200 C 326.800 333.870,327.070 333.600,327.400 333.600 C 327.733 333.600,328.000 333.244,328.000 332.800 C 328.000 332.267,328.267 332.000,328.800 332.000 C 329.244 332.000,329.600 331.733,329.600 331.400 C 329.600 331.070,329.870 330.800,330.200 330.800 C 330.530 330.800,330.800 330.530,330.800 330.200 C 330.800 329.870,331.070 329.600,331.400 329.600 C 331.733 329.600,332.000 329.244,332.000 328.800 C 332.000 328.267,332.267 328.000,332.800 328.000 C 333.244 328.000,333.600 327.733,333.600 327.400 C 333.600 327.070,333.870 326.800,334.200 326.800 C 334.530 326.800,334.800 326.551,334.800 326.247 C 334.800 325.942,335.160 325.599,335.600 325.484 C 336.040 325.369,336.400 324.988,336.400 324.637 C 336.400 324.287,336.670 324.000,337.000 324.000 C 337.330 324.000,337.600 323.730,337.600 323.400 C 337.600 323.070,337.870 322.800,338.200 322.800 C 338.530 322.800,338.800 322.551,338.800 322.247 C 338.800 321.942,339.160 321.599,339.600 321.484 C 340.040 321.369,340.400 320.988,340.400 320.637 C 340.400 320.287,340.670 320.000,341.000 320.000 C 341.422 320.000,341.600 319.573,341.600 318.557 C 341.600 317.439,341.735 317.166,342.200 317.345 C 342.608 317.501,342.800 317.323,342.800 316.787 C 342.800 316.267,343.071 316.000,343.600 316.000 C 344.044 316.000,344.400 315.733,344.400 315.400 C 344.400 315.070,344.670 314.800,345.000 314.800 C 345.419 314.800,345.600 314.378,345.600 313.400 C 345.600 312.422,345.781 312.000,346.200 312.000 C 346.544 312.000,346.800 311.639,346.800 311.153 C 346.800 310.504,346.986 310.355,347.600 310.516 C 348.193 310.671,348.400 310.528,348.400 309.963 C 348.400 309.543,348.670 309.200,349.000 309.200 C 349.400 309.200,349.600 308.800,349.600 308.000 C 349.600 307.067,349.778 306.800,350.400 306.800 C 350.933 306.800,351.200 306.533,351.200 306.000 C 351.200 305.556,351.467 305.200,351.800 305.200 C 352.200 305.200,352.400 304.800,352.400 304.000 C 352.400 303.200,352.600 302.800,353.000 302.800 C 353.333 302.800,353.600 302.444,353.600 302.000 C 353.600 301.467,353.867 301.200,354.400 301.200 C 354.840 301.200,355.200 300.949,355.200 300.643 C 355.200 300.336,355.470 299.982,355.800 299.855 C 356.151 299.721,356.400 299.121,356.400 298.413 C 356.400 297.601,356.599 297.200,357.000 297.200 C 357.419 297.200,357.600 296.778,357.600 295.800 C 357.600 294.652,357.749 294.400,358.426 294.400 C 359.116 294.400,359.231 294.187,359.126 293.100 C 359.024 292.047,359.133 291.822,359.700 291.918 C 360.257 292.011,360.400 291.746,360.400 290.618 C 360.400 289.624,360.580 289.200,361.000 289.200 C 361.330 289.200,361.600 288.951,361.600 288.647 C 361.600 288.342,361.982 287.993,362.449 287.871 C 363.147 287.689,363.265 287.421,363.110 286.371 C 362.964 285.370,363.083 285.051,363.661 284.900 C 364.429 284.699,364.538 284.410,364.416 282.902 C 364.362 282.235,364.505 282.066,364.972 282.244 C 365.482 282.440,365.600 282.167,365.600 280.796 C 365.600 279.304,365.693 279.131,366.400 279.316 C 367.111 279.502,367.200 279.328,367.200 277.763 C 367.200 276.463,367.357 276.000,367.800 276.000 C 368.233 276.000,368.400 275.556,368.400 274.400 C 368.400 273.244,368.567 272.800,369.000 272.800 C 369.419 272.800,369.600 272.378,369.600 271.400 C 369.600 270.267,369.752 270.000,370.400 270.000 C 371.081 270.000,371.200 269.733,371.200 268.200 C 371.200 266.867,371.356 266.400,371.800 266.400 C 372.215 266.400,372.400 265.983,372.400 265.047 C 372.400 263.999,372.594 263.643,373.258 263.469 C 374.039 263.265,374.095 263.058,373.872 261.181 C 373.656 259.355,373.718 259.094,374.414 258.912 C 375.073 258.740,375.200 258.358,375.200 256.553 C 375.200 254.906,375.341 254.400,375.800 254.400 C 376.262 254.400,376.400 253.884,376.400 252.153 C 376.400 250.075,376.462 249.923,377.232 250.124 C 378.024 250.331,378.057 250.209,377.932 247.570 C 377.817 245.146,377.888 244.798,378.500 244.799 C 379.108 244.800,379.200 244.381,379.200 241.600 C 379.200 239.022,379.317 238.400,379.800 238.400 C 380.289 238.400,380.400 237.733,380.400 234.800 C 380.400 231.401,380.447 231.200,381.246 231.200 C 382.067 231.200,382.088 231.062,381.946 226.700 C 381.812 222.576,381.860 222.205,382.514 222.258 C 383.179 222.312,383.226 221.740,383.199 213.858 C 383.127 192.322,383.147 191.669,383.871 191.529 C 384.500 191.408,384.500 191.357,383.871 190.729 C 383.325 190.182,383.200 189.244,383.200 185.675 C 383.200 181.544,383.151 181.281,382.350 181.071 C 381.553 180.863,381.367 178.144,381.989 175.800 C 382.183 175.068,381.940 170.191,381.735 170.700 C 381.287 171.810,380.400 171.194,380.400 169.773 C 380.400 168.486,380.488 168.370,381.300 168.594 L 382.200 168.842 381.300 168.057 C 380.641 167.482,380.400 166.833,380.400 165.636 C 380.400 164.448,380.236 164.000,379.800 164.000 C 379.320 164.000,379.200 163.400,379.200 161.000 C 379.200 158.228,379.137 158.000,378.368 158.000 C 377.582 158.000,377.552 157.856,377.815 155.400 C 378.079 152.931,378.050 152.800,377.247 152.800 C 376.487 152.800,376.400 152.574,376.400 150.600 C 376.400 148.911,376.261 148.400,375.800 148.400 C 375.341 148.400,375.200 147.894,375.200 146.244 C 375.200 144.437,375.087 144.098,374.500 144.144 C 373.889 144.193,373.809 143.844,373.867 141.400 C 373.904 139.860,373.847 139.005,373.739 139.500 C 373.349 141.303,372.400 140.524,372.400 138.400 C 372.400 136.719,372.282 136.400,371.659 136.400 C 371.011 136.400,370.942 136.149,371.107 134.425 C 371.286 132.569,371.246 132.463,370.449 132.671 C 369.685 132.871,369.600 132.728,369.600 131.247 C 369.600 130.050,369.436 129.600,369.000 129.600 C 368.478 129.600,368.105 127.467,368.353 125.900 C 368.379 125.735,368.130 125.600,367.800 125.600 C 367.400 125.600,367.200 125.200,367.200 124.400 C 367.200 123.467,367.022 123.200,366.400 123.200 C 365.752 123.200,365.600 122.933,365.600 121.800 C 365.600 120.822,365.419 120.400,365.000 120.400 C 364.605 120.400,364.400 120.005,364.400 119.247 C 364.400 118.419,364.168 118.033,363.576 117.878 C 362.863 117.691,362.789 117.464,363.029 116.187 C 363.287 114.813,363.247 114.731,362.453 114.983 C 361.691 115.225,361.600 115.101,361.600 113.827 C 361.600 112.825,361.421 112.400,361.000 112.400 C 360.667 112.400,360.400 112.044,360.400 111.600 C 360.400 111.060,360.133 110.800,359.580 110.800 C 358.937 110.800,358.840 110.658,359.128 110.143 C 359.698 109.125,359.259 108.059,358.365 108.293 C 357.716 108.463,357.600 108.275,357.600 107.047 C 357.600 105.981,357.430 105.600,356.953 105.600 C 356.526 105.600,356.371 105.354,356.496 104.874 C 356.637 104.338,356.466 104.155,355.843 104.174 C 355.129 104.196,355.019 104.001,355.126 102.900 C 355.231 101.813,355.116 101.600,354.426 101.600 C 353.951 101.600,353.600 101.340,353.600 100.987 C 353.600 100.651,353.330 100.271,353.000 100.145 C 352.658 100.013,352.400 99.417,352.400 98.757 C 352.400 97.867,352.216 97.600,351.600 97.600 C 351.148 97.600,350.800 97.333,350.800 96.987 C 350.800 96.651,350.530 96.271,350.200 96.145 C 349.830 96.003,349.600 95.395,349.600 94.557 C 349.600 93.617,349.415 93.200,349.000 93.200 C 348.670 93.200,348.400 92.930,348.400 92.600 C 348.400 92.267,348.044 92.000,347.600 92.000 C 347.156 92.000,346.800 91.733,346.800 91.400 C 346.800 91.070,346.530 90.800,346.200 90.800 C 345.781 90.800,345.600 90.378,345.600 89.400 C 345.600 88.422,345.419 88.000,345.000 88.000 C 344.670 88.000,344.400 87.730,344.400 87.400 C 344.400 87.067,344.044 86.800,343.600 86.800 C 343.156 86.800,342.800 86.533,342.800 86.200 C 342.800 85.870,342.542 85.600,342.227 85.600 C 341.912 85.600,341.540 85.240,341.400 84.800 C 341.260 84.360,340.880 84.000,340.555 84.000 C 340.096 84.000,340.022 83.687,340.226 82.600 C 340.459 81.359,340.393 81.200,339.645 81.200 C 339.161 81.200,338.800 80.944,338.800 80.600 C 338.800 80.270,338.530 80.000,338.200 80.000 C 337.870 80.000,337.600 79.724,337.600 79.387 C 337.600 79.051,337.330 78.671,337.000 78.545 C 336.670 78.418,336.400 78.064,336.400 77.757 C 336.400 77.451,336.040 77.200,335.600 77.200 C 335.156 77.200,334.800 76.933,334.800 76.600 C 334.800 76.267,334.444 76.000,334.000 76.000 C 333.556 76.000,333.200 75.733,333.200 75.400 C 333.200 75.070,332.930 74.800,332.600 74.800 C 332.270 74.800,332.000 74.530,332.000 74.200 C 332.000 73.870,331.730 73.600,331.400 73.600 C 331.070 73.600,330.800 73.313,330.800 72.963 C 330.800 72.612,330.440 72.231,330.000 72.116 C 329.560 72.001,329.200 71.658,329.200 71.353 C 329.200 71.049,328.930 70.800,328.600 70.800 C 328.270 70.800,327.997 70.575,327.993 70.300 C 327.984 69.668,326.249 68.000,325.600 68.000 C 325.286 68.000,325.199 67.659,325.355 67.038 C 325.559 66.224,325.474 66.108,324.798 66.285 C 324.244 66.430,324.000 66.296,324.000 65.847 C 324.000 65.491,323.730 65.200,323.400 65.200 C 323.067 65.200,322.800 64.844,322.800 64.400 C 322.800 63.956,322.533 63.600,322.200 63.600 C 321.870 63.600,321.600 63.330,321.600 63.000 C 321.600 62.581,321.178 62.400,320.200 62.400 C 319.222 62.400,318.800 62.219,318.800 61.800 C 318.800 61.467,318.444 61.200,318.000 61.200 C 317.556 61.200,317.200 60.933,317.200 60.600 C 317.200 60.270,316.930 60.000,316.600 60.000 C 316.267 60.000,316.000 59.644,316.000 59.200 C 316.000 58.653,315.733 58.400,315.157 58.400 C 314.572 58.400,314.385 58.216,314.545 57.800 C 314.679 57.449,314.550 57.200,314.234 57.200 C 313.937 57.200,313.598 56.837,313.482 56.394 C 313.316 55.758,312.989 55.610,311.936 55.694 C 310.804 55.784,310.604 55.671,310.626 54.957 C 310.645 54.334,310.462 54.163,309.926 54.304 C 309.446 54.429,309.200 54.274,309.200 53.847 C 309.200 53.395,308.838 53.200,308.000 53.200 C 307.340 53.200,306.800 53.020,306.800 52.800 C 306.800 52.580,307.070 52.400,307.400 52.400 C 307.730 52.400,308.000 52.231,308.000 52.025 C 308.000 51.819,307.370 51.753,306.600 51.877 C 305.367 52.078,305.200 52.003,305.200 51.252 C 305.200 50.784,304.951 50.400,304.647 50.400 C 304.342 50.400,303.999 50.041,303.885 49.602 C 303.713 48.948,303.454 48.849,302.438 49.052 C 301.365 49.267,301.200 49.187,301.200 48.450 C 301.200 47.961,300.945 47.600,300.600 47.600 C 300.270 47.600,300.000 47.330,300.000 47.000 C 300.000 46.581,299.578 46.400,298.600 46.400 C 297.456 46.400,297.200 46.250,297.200 45.582 C 297.200 44.864,297.029 44.796,295.800 45.026 C 294.559 45.259,294.400 45.193,294.400 44.445 C 294.400 43.961,294.144 43.600,293.800 43.600 C 293.470 43.600,293.200 43.330,293.200 43.000 C 293.200 42.581,292.778 42.400,291.800 42.400 C 290.656 42.400,290.400 42.250,290.400 41.582 C 290.400 40.864,290.229 40.796,289.000 41.026 C 287.741 41.263,287.600 41.200,287.600 40.399 C 287.600 39.638,287.427 39.535,286.400 39.685 C 285.440 39.826,285.200 39.715,285.200 39.131 C 285.200 38.562,284.889 38.400,283.800 38.400 C 282.638 38.400,282.400 38.255,282.400 37.548 C 282.400 36.797,282.233 36.722,281.000 36.923 C 279.804 37.117,279.600 37.037,279.600 36.375 C 279.600 35.752,279.318 35.600,278.157 35.600 C 277.039 35.600,276.766 35.465,276.945 35.000 C 277.180 34.387,276.690 34.239,274.900 34.384 C 274.220 34.439,274.000 34.244,274.000 33.585 C 274.000 32.863,273.834 32.755,273.032 32.956 C 271.826 33.259,270.800 32.892,270.800 32.157 C 270.800 31.774,270.301 31.600,269.200 31.600 C 268.044 31.600,267.600 31.433,267.600 31.000 C 267.600 30.547,267.111 30.400,265.600 30.400 C 263.832 30.400,263.600 30.302,263.600 29.555 C 263.600 28.813,263.437 28.742,262.254 28.964 C 260.668 29.261,259.600 28.936,259.600 28.157 C 259.600 27.755,259.043 27.600,257.600 27.600 C 255.652 27.600,254.787 26.821,256.100 26.249 C 256.375 26.129,255.501 26.134,254.158 26.261 C 251.869 26.476,251.702 26.434,251.481 25.587 C 251.266 24.767,251.067 24.703,249.322 24.894 C 247.104 25.137,246.400 24.962,246.400 24.167 C 246.400 23.731,245.743 23.600,243.553 23.600 C 240.859 23.600,240.718 23.555,240.926 22.761 C 241.140 21.944,241.061 21.929,237.973 22.202 C 234.925 22.472,234.800 22.450,234.800 21.642 C 234.800 20.926,234.560 20.800,233.200 20.800 C 232.190 20.800,231.598 20.616,231.594 20.300 C 231.590 19.945,231.502 19.931,231.294 20.250 C 230.537 21.408,226.000 21.338,226.000 20.168 C 226.000 19.703,224.924 19.600,220.047 19.600 C 214.430 19.600,214.081 19.555,213.884 18.800 C 213.680 18.021,213.338 18.000,200.660 18.000 C 187.861 18.000,187.648 18.013,187.800 18.800 M219.737 48.128 C 222.782 48.496,225.410 48.883,225.578 48.986 C 225.745 49.090,227.214 49.377,228.841 49.625 C 275.126 56.680,319.217 89.993,340.775 134.200 C 345.125 143.119,346.971 147.908,350.797 160.200 C 357.312 181.130,358.037 215.402,352.407 236.400 C 349.012 249.064,347.356 253.961,343.413 263.000 C 341.062 268.389,336.655 277.029,334.742 280.000 C 334.388 280.550,333.063 282.620,331.797 284.600 C 316.555 308.437,294.590 327.719,268.177 340.447 C 264.578 342.181,261.438 343.600,261.201 343.600 C 260.963 343.600,260.100 343.936,259.284 344.348 C 256.823 345.588,246.310 349.034,239.200 350.932 C 234.328 352.232,225.432 353.899,220.793 354.380 C 218.707 354.597,215.740 354.956,214.200 355.179 C 209.792 355.817,191.282 355.699,185.537 354.997 C 178.736 354.165,175.507 353.697,172.000 353.035 C 170.350 352.723,167.920 352.264,166.600 352.013 C 165.280 351.763,163.390 351.318,162.400 351.024 C 161.410 350.730,159.160 350.091,157.400 349.603 C 113.375 337.395,75.072 303.719,57.424 261.705 C 56.201 258.793,55.200 256.300,55.200 256.165 C 55.200 256.031,54.948 255.354,54.640 254.660 C 51.981 248.680,48.614 235.900,46.985 225.600 C 45.580 216.714,45.423 214.288,45.423 201.400 C 45.423 188.889,45.542 186.896,46.818 178.000 C 47.564 172.795,49.385 164.412,50.772 159.800 C 52.682 153.449,54.169 148.934,54.454 148.620 C 54.644 148.411,54.800 147.995,54.800 147.696 C 54.800 146.957,58.881 137.437,61.100 133.000 C 77.398 100.410,104.763 74.530,138.200 60.083 C 143.916 57.613,152.581 54.444,157.000 53.208 C 162.501 51.668,169.235 50.103,172.568 49.589 C 174.091 49.355,175.446 49.095,175.580 49.012 C 175.714 48.929,178.515 48.567,181.803 48.206 C 185.092 47.846,187.870 47.463,187.978 47.356 C 188.474 46.859,214.482 47.491,219.737 48.128 M356.000 299.000 C 356.000 299.330,355.831 299.600,355.624 299.600 C 355.119 299.600,354.758 298.975,355.078 298.656 C 355.528 298.205,356.000 298.381,356.000 299.000 M0.000 403.000 L 0.000 404.000 200.000 404.000 L 400.000 404.000 400.000 403.000 L 400.000 402.000 200.000 402.000 L 0.000 402.000 0.000 403.000 " stroke="none" fill="#2cdcfc" fill-rule="evenodd"></path><path id="path2" d="M179.700 18.277 C 177.736 19.022,179.424 19.600,183.565 19.600 C 187.494 19.600,187.919 19.530,187.827 18.900 C 187.726 18.213,181.189 17.712,179.700 18.277 M213.884 18.800 C 214.152 19.823,222.000 20.061,222.000 19.047 C 222.000 18.275,220.723 18.012,216.937 18.005 C 213.871 18.000,213.687 18.048,213.884 18.800 M170.267 19.867 C 169.701 20.433,170.058 20.740,171.583 20.997 C 173.458 21.314,174.800 20.970,174.800 20.173 C 174.800 19.574,170.827 19.306,170.267 19.867 M226.000 20.149 C 226.000 20.905,227.924 21.326,229.784 20.977 C 232.006 20.560,231.249 19.815,228.468 19.681 C 226.511 19.586,226.000 19.683,226.000 20.149 M163.467 21.067 C 162.637 21.897,163.307 22.400,165.243 22.400 C 166.941 22.400,167.245 22.293,167.043 21.767 C 166.909 21.419,166.800 21.059,166.800 20.967 C 166.800 20.689,163.753 20.780,163.467 21.067 M234.800 21.600 C 234.800 22.261,235.067 22.400,236.333 22.400 C 238.056 22.400,238.443 22.176,238.130 21.361 C 237.762 20.403,234.800 20.616,234.800 21.600 M156.900 22.265 C 155.566 22.803,156.462 23.600,158.400 23.600 C 160.133 23.600,160.400 23.493,160.400 22.800 C 160.400 22.005,158.328 21.689,156.900 22.265 M241.000 22.334 C 240.350 22.983,240.934 23.600,242.200 23.600 C 243.413 23.600,244.403 22.489,243.300 22.367 C 243.135 22.348,242.595 22.288,242.100 22.234 C 241.605 22.179,241.110 22.224,241.000 22.334 M151.200 24.157 C 151.200 24.819,152.951 25.333,154.034 24.989 C 155.570 24.502,154.899 23.600,153.000 23.600 C 151.729 23.600,151.200 23.764,151.200 24.157 M246.400 24.157 C 246.400 24.914,247.363 25.227,248.804 24.939 C 250.848 24.530,249.989 23.600,247.567 23.600 C 246.836 23.600,246.400 23.808,246.400 24.157 M147.070 25.361 C 146.765 26.156,147.140 26.400,148.667 26.400 C 149.733 26.400,150.000 26.240,150.000 25.600 C 150.000 24.628,147.432 24.418,147.070 25.361 M251.478 25.578 C 251.769 26.690,254.536 26.809,254.326 25.700 C 254.234 25.214,253.745 24.963,252.728 24.878 C 251.421 24.769,251.286 24.844,251.478 25.578 M142.500 26.544 C 141.257 27.160,141.373 27.486,142.900 27.663 C 144.913 27.896,145.542 27.665,145.310 26.779 C 145.085 25.915,143.960 25.821,142.500 26.544 M256.100 26.265 C 255.001 26.708,255.603 27.600,257.000 27.600 C 257.930 27.600,258.400 27.413,258.400 27.043 C 258.400 26.223,257.205 25.819,256.100 26.265 M138.668 28.167 C 138.437 28.770,139.171 29.200,140.433 29.200 C 140.933 29.200,141.200 28.922,141.200 28.400 C 141.200 27.438,139.025 27.238,138.668 28.167 M259.600 28.192 C 259.600 28.842,261.303 29.431,261.977 29.014 C 262.948 28.414,262.386 27.600,261.000 27.600 C 260.030 27.600,259.600 27.782,259.600 28.192 M135.169 28.900 C 134.780 30.172,134.942 30.400,136.235 30.400 C 137.333 30.400,137.600 30.244,137.600 29.600 C 137.600 28.938,135.356 28.291,135.169 28.900 M263.600 29.660 C 263.600 30.239,263.904 30.400,265.000 30.400 C 266.236 30.400,267.145 29.356,266.100 29.137 C 264.472 28.798,263.600 28.980,263.600 29.660 M131.200 31.082 C 131.200 31.407,131.720 31.600,132.600 31.600 C 133.591 31.600,134.000 31.421,134.000 30.987 C 134.000 30.536,133.632 30.400,132.600 30.469 C 131.769 30.525,131.200 30.774,131.200 31.082 M267.600 30.971 C 267.600 31.342,267.942 31.600,268.433 31.600 C 269.408 31.600,269.270 30.665,268.267 30.471 C 267.872 30.394,267.600 30.598,267.600 30.971 M128.400 32.400 C 128.400 33.022,128.667 33.200,129.600 33.200 C 130.533 33.200,130.800 33.022,130.800 32.400 C 130.800 31.778,130.533 31.600,129.600 31.600 C 128.667 31.600,128.400 31.778,128.400 32.400 M270.800 32.167 C 270.800 32.814,272.172 33.388,272.796 33.002 C 273.609 32.500,273.168 31.768,272.000 31.679 C 271.177 31.616,270.800 31.769,270.800 32.167 M125.880 33.053 C 125.252 33.681,125.651 34.400,126.629 34.400 C 127.392 34.400,127.624 34.220,127.525 33.705 C 127.385 32.976,126.362 32.571,125.880 33.053 M274.000 33.600 C 274.000 34.259,274.207 34.426,274.900 34.328 C 275.395 34.258,275.800 33.930,275.800 33.600 C 275.800 33.270,275.395 32.942,274.900 32.872 C 274.207 32.774,274.000 32.941,274.000 33.600 M122.800 35.000 C 122.800 35.330,122.875 35.600,122.967 35.600 C 123.059 35.600,123.419 35.709,123.767 35.843 C 124.221 36.017,124.400 35.847,124.400 35.243 C 124.400 34.667,124.147 34.400,123.600 34.400 C 123.156 34.400,122.800 34.667,122.800 35.000 M277.067 34.667 C 276.560 35.174,276.803 35.600,277.600 35.600 C 278.044 35.600,278.400 35.333,278.400 35.000 C 278.400 34.391,277.554 34.179,277.067 34.667 M119.600 35.973 C 119.600 36.398,118.045 37.004,117.313 36.864 C 117.044 36.813,116.596 37.137,116.316 37.585 C 116.037 38.033,115.581 38.400,115.304 38.400 C 115.027 38.400,114.800 38.670,114.800 39.000 C 114.800 39.333,115.156 39.600,115.600 39.600 C 116.044 39.600,116.400 39.333,116.400 39.000 C 116.400 38.600,116.800 38.400,117.600 38.400 C 118.554 38.400,118.800 38.227,118.800 37.555 C 118.800 36.807,118.959 36.741,120.200 36.974 C 121.429 37.204,121.600 37.136,121.600 36.418 C 121.600 35.812,121.341 35.600,120.600 35.600 C 120.050 35.600,119.600 35.768,119.600 35.973 M279.600 36.400 C 279.600 37.268,279.895 37.381,280.751 36.839 C 281.397 36.430,281.011 35.600,280.176 35.600 C 279.859 35.600,279.600 35.960,279.600 36.400 M282.400 37.635 C 282.400 38.142,282.679 38.400,283.229 38.400 C 283.787 38.400,284.016 38.183,283.929 37.738 C 283.741 36.774,282.400 36.684,282.400 37.635 M285.200 39.187 C 285.200 39.723,285.392 39.901,285.800 39.745 C 286.130 39.618,286.400 39.264,286.400 38.957 C 286.400 38.651,286.130 38.400,285.800 38.400 C 285.470 38.400,285.200 38.754,285.200 39.187 M112.270 40.161 C 112.019 40.815,112.314 41.200,113.067 41.200 C 113.360 41.200,113.600 40.840,113.600 40.400 C 113.600 39.490,112.597 39.310,112.270 40.161 M287.600 40.400 C 287.600 40.933,287.867 41.200,288.400 41.200 C 289.349 41.200,289.474 40.191,288.567 39.843 C 287.650 39.491,287.600 39.519,287.600 40.400 M109.600 41.557 C 109.600 42.317,110.513 42.953,110.961 42.506 C 111.535 41.932,111.163 40.800,110.400 40.800 C 109.882 40.800,109.600 41.067,109.600 41.557 M290.400 41.600 C 290.400 42.120,290.667 42.400,291.163 42.400 C 291.728 42.400,291.871 42.193,291.716 41.600 C 291.601 41.160,291.258 40.800,290.953 40.800 C 290.649 40.800,290.400 41.160,290.400 41.600 M106.800 43.000 C 106.800 43.330,106.575 43.621,106.300 43.646 C 106.025 43.672,105.617 43.717,105.392 43.746 C 104.758 43.830,102.800 45.468,102.800 45.915 C 102.800 46.742,104.071 46.816,104.284 46.002 C 104.432 45.433,104.829 45.200,105.647 45.200 C 106.380 45.200,106.800 44.992,106.800 44.628 C 106.800 44.313,107.203 43.998,107.696 43.928 C 109.025 43.738,109.142 42.400,107.829 42.400 C 107.181 42.400,106.800 42.622,106.800 43.000 M293.200 43.033 C 293.200 43.740,294.061 43.617,294.308 42.875 C 294.395 42.614,294.182 42.400,293.833 42.400 C 293.485 42.400,293.200 42.685,293.200 43.033 M294.400 44.400 C 294.400 44.947,294.667 45.200,295.243 45.200 C 295.847 45.200,296.017 45.021,295.843 44.567 C 295.709 44.219,295.600 43.859,295.600 43.767 C 295.600 43.675,295.330 43.600,295.000 43.600 C 294.667 43.600,294.400 43.956,294.400 44.400 M297.379 45.317 C 297.044 46.181,297.312 46.518,298.189 46.335 C 298.770 46.215,298.776 46.113,298.249 45.400 C 297.692 44.647,297.641 44.643,297.379 45.317 M100.000 47.087 C 100.000 47.369,99.730 47.600,99.400 47.600 C 99.067 47.600,98.800 47.956,98.800 48.400 C 98.800 48.933,99.067 49.200,99.600 49.200 C 100.040 49.200,100.400 48.951,100.400 48.647 C 100.400 48.342,100.760 47.999,101.200 47.884 C 102.399 47.571,102.229 46.390,101.000 46.492 C 100.450 46.537,100.000 46.805,100.000 47.087 M187.978 47.356 C 187.870 47.463,185.092 47.846,181.803 48.206 C 178.515 48.567,175.714 48.929,175.580 49.012 C 175.446 49.095,174.091 49.355,172.568 49.589 C 169.775 50.020,167.095 50.609,161.600 52.000 C 118.284 62.968,81.159 92.890,61.100 133.000 C 58.881 137.437,54.800 146.957,54.800 147.696 C 54.800 147.995,54.644 148.411,54.454 148.620 C 54.169 148.934,52.682 153.449,50.772 159.800 C 49.385 164.412,47.564 172.795,46.818 178.000 C 45.542 186.896,45.423 188.889,45.423 201.400 C 45.423 214.288,45.580 216.714,46.985 225.600 C 48.614 235.900,51.981 248.680,54.640 254.660 C 54.948 255.354,55.200 256.031,55.200 256.165 C 55.200 259.319,66.059 279.693,73.233 290.000 C 92.768 318.066,124.367 340.443,157.400 349.603 C 159.160 350.091,161.410 350.730,162.400 351.024 C 163.390 351.318,165.280 351.763,166.600 352.013 C 167.920 352.264,170.350 352.723,172.000 353.035 C 175.507 353.697,178.736 354.165,185.537 354.997 C 191.282 355.699,209.792 355.817,214.200 355.179 C 215.740 354.956,218.707 354.597,220.793 354.380 C 225.432 353.899,234.328 352.232,239.200 350.932 C 246.310 349.034,256.823 345.588,259.284 344.348 C 260.100 343.936,260.963 343.600,261.201 343.600 C 261.438 343.600,264.578 342.181,268.177 340.447 C 294.590 327.719,316.555 308.437,331.797 284.600 C 333.063 282.620,334.388 280.550,334.742 280.000 C 336.655 277.029,341.062 268.389,343.413 263.000 C 347.356 253.961,349.012 249.064,352.407 236.400 C 357.742 216.500,357.501 186.814,351.818 164.000 C 351.123 161.210,351.151 161.304,348.971 154.400 C 333.751 106.209,294.149 67.789,244.800 53.339 C 240.084 51.958,232.376 50.164,228.841 49.625 C 227.214 49.377,225.745 49.090,225.578 48.986 C 223.940 47.974,188.880 46.454,187.978 47.356 M301.200 48.371 C 301.200 48.943,301.457 49.200,302.029 49.200 C 302.602 49.200,302.817 48.985,302.725 48.505 C 302.524 47.462,301.200 47.346,301.200 48.371 M96.196 49.593 C 96.367 49.870,96.145 50.142,95.640 50.274 C 95.162 50.399,94.800 50.818,94.800 51.247 C 94.800 52.255,96.018 52.217,96.284 51.200 C 96.404 50.742,96.830 50.400,97.280 50.400 C 98.358 50.400,97.969 49.434,96.824 49.266 C 96.215 49.177,96.006 49.286,96.196 49.593 M305.200 51.200 C 305.200 51.778,305.467 52.000,306.163 52.000 C 306.928 52.000,307.082 51.836,306.916 51.200 C 306.800 50.757,306.370 50.400,305.953 50.400 C 305.467 50.400,305.200 50.683,305.200 51.200 M306.800 52.800 C 306.800 53.020,307.070 53.200,307.400 53.200 C 307.730 53.200,308.000 53.020,308.000 52.800 C 308.000 52.580,307.730 52.400,307.400 52.400 C 307.070 52.400,306.800 52.580,306.800 52.800 M90.800 53.800 C 90.800 54.130,90.456 54.400,90.035 54.400 C 89.535 54.400,89.306 54.642,89.373 55.100 C 89.500 55.970,90.800 56.294,90.800 55.456 C 90.800 55.125,91.160 54.740,91.600 54.600 C 92.040 54.460,92.400 54.088,92.400 53.773 C 92.400 53.458,92.040 53.200,91.600 53.200 C 91.156 53.200,90.800 53.467,90.800 53.800 M309.200 53.800 C 309.200 54.212,309.462 54.408,309.900 54.324 C 310.743 54.161,310.690 53.452,309.821 53.271 C 309.459 53.195,309.200 53.416,309.200 53.800 M310.468 55.059 C 310.546 55.462,310.938 55.854,311.341 55.932 C 311.869 56.033,312.033 55.869,311.932 55.341 C 311.854 54.938,311.462 54.546,311.059 54.468 C 310.531 54.367,310.367 54.531,310.468 55.059 M85.417 57.627 C 85.562 57.862,85.303 58.153,84.840 58.274 C 84.378 58.394,84.000 58.742,84.000 59.047 C 84.000 59.351,83.749 59.600,83.443 59.600 C 82.978 59.600,82.400 60.394,82.400 61.033 C 82.400 61.500,83.947 61.116,84.145 60.600 C 84.271 60.270,84.651 60.000,84.987 60.000 C 85.324 60.000,85.600 59.724,85.600 59.387 C 85.600 59.051,85.870 58.671,86.200 58.545 C 87.092 58.202,86.926 57.200,85.976 57.200 C 85.495 57.200,85.262 57.377,85.417 57.627 M314.667 57.467 C 314.160 57.974,314.403 58.400,315.200 58.400 C 315.733 58.400,316.000 58.667,316.000 59.200 C 316.000 59.644,316.267 60.000,316.600 60.000 C 316.930 60.000,317.200 60.270,317.200 60.600 C 317.200 60.933,317.556 61.200,318.000 61.200 C 318.444 61.200,318.800 61.467,318.800 61.800 C 318.800 62.130,319.070 62.400,319.400 62.400 C 319.730 62.400,320.000 62.214,320.000 61.987 C 320.000 61.761,319.730 61.471,319.400 61.345 C 319.070 61.218,318.800 60.876,318.800 60.584 C 318.800 60.293,318.437 59.939,317.994 59.798 C 317.551 59.657,317.299 59.363,317.434 59.144 C 317.570 58.925,317.302 58.647,316.840 58.526 C 316.378 58.406,316.000 58.058,316.000 57.753 C 316.000 57.182,315.137 56.996,314.667 57.467 M76.120 65.730 C 75.944 66.022,75.483 66.377,75.096 66.519 C 74.709 66.661,74.436 66.918,74.489 67.089 C 74.635 67.558,73.096 69.200,72.511 69.200 C 72.230 69.200,72.000 69.470,72.000 69.800 C 72.000 70.130,71.742 70.400,71.427 70.400 C 71.112 70.400,70.740 70.760,70.600 71.200 C 70.460 71.640,70.088 72.000,69.773 72.000 C 69.458 72.000,69.200 72.270,69.200 72.600 C 69.200 72.930,68.930 73.200,68.600 73.200 C 68.267 73.200,68.000 73.556,68.000 74.000 C 68.000 74.444,68.267 74.800,68.600 74.800 C 68.930 74.800,69.200 74.542,69.200 74.227 C 69.200 73.912,69.560 73.540,70.000 73.400 C 70.440 73.260,70.800 72.888,70.800 72.573 C 70.800 72.258,71.070 72.000,71.400 72.000 C 71.730 72.000,72.000 71.730,72.000 71.400 C 72.000 71.070,72.249 70.800,72.553 70.800 C 72.858 70.800,73.201 70.440,73.316 70.000 C 73.431 69.560,73.812 69.200,74.163 69.200 C 74.513 69.200,74.800 68.930,74.800 68.600 C 74.800 68.270,75.070 68.000,75.400 68.000 C 75.733 68.000,76.000 67.644,76.000 67.200 C 76.000 66.756,76.267 66.400,76.600 66.400 C 76.930 66.400,77.200 66.130,77.200 65.800 C 77.200 65.058,76.551 65.016,76.120 65.730 M324.267 65.467 C 323.806 65.927,323.975 66.400,324.600 66.400 C 324.930 66.400,325.200 66.130,325.200 65.800 C 325.200 65.175,324.727 65.006,324.267 65.467 M325.400 66.733 C 325.005 67.128,325.210 68.000,325.700 68.007 C 326.310 68.015,328.000 69.742,328.000 70.356 C 328.000 70.600,328.270 70.800,328.600 70.800 C 328.930 70.800,329.200 71.049,329.200 71.353 C 329.200 71.658,329.560 72.001,330.000 72.116 C 330.440 72.231,330.800 72.612,330.800 72.963 C 330.800 73.313,331.070 73.600,331.400 73.600 C 331.730 73.600,332.000 73.870,332.000 74.200 C 332.000 74.530,332.270 74.800,332.600 74.800 C 332.930 74.800,333.200 75.070,333.200 75.400 C 333.200 75.733,333.556 76.000,334.000 76.000 C 334.444 76.000,334.800 76.267,334.800 76.600 C 334.800 76.930,335.070 77.200,335.400 77.200 C 335.730 77.200,336.000 77.014,336.000 76.787 C 336.000 76.561,335.730 76.271,335.400 76.145 C 335.070 76.018,334.800 75.683,334.800 75.400 C 334.800 75.117,334.530 74.782,334.200 74.655 C 333.870 74.529,333.600 74.149,333.600 73.813 C 333.600 73.476,333.349 73.200,333.043 73.200 C 332.736 73.200,332.382 72.930,332.255 72.600 C 332.129 72.270,331.749 72.000,331.413 72.000 C 331.067 72.000,330.800 71.652,330.800 71.200 C 330.800 70.760,330.549 70.400,330.243 70.400 C 329.936 70.400,329.582 70.130,329.455 69.800 C 329.329 69.470,328.949 69.200,328.613 69.200 C 328.276 69.200,328.000 68.930,328.000 68.600 C 328.000 68.270,327.730 68.000,327.400 68.000 C 327.070 68.000,326.800 67.670,326.800 67.267 C 326.800 66.599,325.884 66.250,325.400 66.733 M66.800 74.953 C 66.800 75.293,66.440 75.765,66.000 76.000 C 64.954 76.560,64.977 77.200,66.043 77.200 C 66.628 77.200,66.815 77.016,66.655 76.600 C 66.497 76.187,66.680 76.000,67.242 76.000 C 67.789 76.000,68.016 75.780,67.929 75.333 C 67.761 74.468,66.800 74.144,66.800 74.953 M60.000 82.754 C 60.000 83.248,58.100 85.200,57.619 85.200 C 57.389 85.200,57.200 85.560,57.200 86.000 C 57.200 86.440,56.949 86.800,56.643 86.800 C 56.336 86.800,55.982 87.070,55.855 87.400 C 55.699 87.808,55.877 88.000,56.413 88.000 C 56.846 88.000,57.200 87.730,57.200 87.400 C 57.200 87.067,57.556 86.800,58.000 86.800 C 58.444 86.800,58.800 86.533,58.800 86.200 C 58.800 85.870,59.070 85.600,59.400 85.600 C 59.733 85.600,60.000 85.244,60.000 84.800 C 60.000 84.356,60.267 84.000,60.600 84.000 C 60.930 84.000,61.200 83.749,61.200 83.443 C 61.200 83.136,60.930 82.782,60.600 82.655 C 60.270 82.529,60.000 82.573,60.000 82.754 M340.267 82.667 C 339.789 83.144,339.986 84.000,340.573 84.000 C 340.888 84.000,341.260 84.360,341.400 84.800 C 341.540 85.240,341.912 85.600,342.227 85.600 C 342.542 85.600,342.800 85.870,342.800 86.200 C 342.800 86.533,343.156 86.800,343.600 86.800 C 344.040 86.800,344.400 86.622,344.400 86.403 C 344.400 86.185,344.040 85.782,343.600 85.507 C 343.160 85.232,342.800 84.781,342.800 84.504 C 342.800 84.227,342.542 84.000,342.227 84.000 C 341.912 84.000,341.540 83.640,341.400 83.200 C 341.140 82.381,340.740 82.193,340.267 82.667 M199.538 89.577 C 205.439 91.734,207.751 95.800,208.421 105.200 C 209.649 122.413,210.475 134.559,210.803 140.200 C 211.007 143.720,211.285 147.860,211.419 149.400 C 211.991 155.947,209.048 162.219,204.350 164.466 C 201.755 165.707,199.968 166.400,199.364 166.400 C 199.030 166.400,198.001 166.735,197.078 167.145 C 196.155 167.555,194.140 168.365,192.600 168.945 C 187.417 170.897,185.926 172.305,185.863 175.307 C 185.811 177.835,186.776 194.126,187.195 197.800 C 187.397 199.560,187.663 203.250,187.787 206.000 C 187.912 208.750,188.275 214.420,188.594 218.600 C 188.914 222.780,189.375 229.260,189.619 233.000 C 189.863 236.740,190.318 243.580,190.629 248.200 C 190.941 252.820,191.464 261.056,191.791 266.503 C 192.119 271.950,192.475 276.810,192.583 277.303 C 192.691 277.796,192.964 281.890,193.190 286.400 C 193.416 290.910,193.800 296.243,194.044 298.251 C 196.187 315.931,180.818 321.028,156.800 310.601 C 154.930 309.789,151.960 308.598,150.200 307.955 C 148.440 307.311,146.640 306.626,146.200 306.433 C 145.424 306.091,139.637 303.732,136.800 302.601 C 136.030 302.294,132.340 300.853,128.600 299.399 C 124.860 297.946,121.260 296.506,120.600 296.199 C 119.940 295.892,118.248 295.168,116.839 294.590 C 107.314 290.680,103.355 283.764,102.418 269.400 C 102.189 265.880,101.816 260.570,101.590 257.600 C 101.363 254.630,101.009 249.320,100.802 245.800 C 100.596 242.280,100.241 236.790,100.014 233.600 C 99.788 230.410,99.416 225.190,99.189 222.000 C 98.962 218.810,98.605 213.410,98.395 210.000 C 98.186 206.590,97.745 200.110,97.414 195.600 C 97.084 191.090,96.623 184.430,96.390 180.800 C 95.737 170.630,94.894 158.083,94.376 150.800 C 93.545 139.136,94.521 131.982,97.371 128.832 C 97.717 128.450,98.000 128.006,98.000 127.845 C 98.000 125.523,106.266 119.744,113.200 117.216 C 114.629 116.696,116.185 116.051,118.500 115.022 C 119.215 114.704,122.230 113.434,125.200 112.199 C 128.170 110.965,130.960 109.798,131.400 109.605 C 131.840 109.413,133.370 108.771,134.800 108.178 C 136.230 107.584,138.300 106.696,139.400 106.203 C 141.256 105.371,142.492 104.859,147.800 102.723 C 148.900 102.280,150.340 101.680,151.000 101.389 C 151.660 101.099,153.730 100.208,155.600 99.410 C 157.470 98.612,159.313 97.788,159.695 97.579 C 160.078 97.370,161.986 96.669,163.937 96.021 C 165.887 95.373,168.094 94.579,168.842 94.257 C 170.735 93.440,176.714 91.640,178.400 91.379 C 179.170 91.260,181.420 90.820,183.400 90.402 C 192.024 88.579,196.220 88.365,199.538 89.577 M345.600 90.000 C 345.600 90.444,345.867 90.800,346.200 90.800 C 346.530 90.800,346.800 91.070,346.800 91.400 C 346.800 91.733,347.156 92.000,347.600 92.000 C 348.040 92.000,348.400 91.803,348.400 91.563 C 348.400 91.322,348.040 91.031,347.600 90.916 C 347.157 90.800,346.800 90.370,346.800 89.953 C 346.800 89.539,346.530 89.200,346.200 89.200 C 345.867 89.200,345.600 89.556,345.600 90.000 M54.545 90.200 C 54.418 90.530,54.064 90.800,53.757 90.800 C 53.451 90.800,53.200 91.070,53.200 91.400 C 53.200 91.733,53.556 92.000,54.000 92.000 C 54.444 92.000,54.800 91.733,54.800 91.400 C 54.800 91.070,54.980 90.800,55.200 90.800 C 55.420 90.800,55.600 90.530,55.600 90.200 C 55.600 89.870,55.414 89.600,55.187 89.600 C 54.961 89.600,54.671 89.870,54.545 90.200 M52.204 92.393 C 51.909 92.871,52.283 93.600,52.824 93.600 C 53.310 93.600,53.313 92.517,52.828 92.217 C 52.623 92.091,52.342 92.170,52.204 92.393 M50.400 95.371 C 50.400 95.717,50.130 96.000,49.800 96.000 C 49.467 96.000,49.200 96.356,49.200 96.800 C 49.200 97.244,49.467 97.600,49.800 97.600 C 50.130 97.600,50.400 97.313,50.400 96.963 C 50.400 96.612,50.767 96.229,51.216 96.112 C 52.154 95.867,52.057 95.063,51.067 94.871 C 50.672 94.794,50.400 94.998,50.400 95.371 M349.600 95.357 C 349.600 95.664,349.870 96.018,350.200 96.145 C 350.530 96.271,350.800 96.651,350.800 96.987 C 350.800 97.594,351.638 97.828,352.112 97.355 C 352.464 97.003,350.751 94.800,350.125 94.800 C 349.836 94.800,349.600 95.051,349.600 95.357 M48.000 99.400 C 48.000 99.733,47.644 100.000,47.200 100.000 C 46.667 100.000,46.400 100.267,46.400 100.800 C 46.400 101.333,46.667 101.600,47.200 101.600 C 47.733 101.600,48.000 101.333,48.000 100.800 C 48.000 100.356,48.267 100.000,48.600 100.000 C 48.930 100.000,49.200 99.730,49.200 99.400 C 49.200 99.070,48.930 98.800,48.600 98.800 C 48.270 98.800,48.000 99.070,48.000 99.400 M352.400 99.357 C 352.400 99.664,352.670 100.018,353.000 100.145 C 353.330 100.271,353.600 100.651,353.600 100.987 C 353.600 101.337,353.950 101.600,354.414 101.600 C 355.104 101.600,355.163 101.478,354.800 100.800 C 354.565 100.360,354.198 100.000,353.986 100.000 C 353.774 100.000,353.600 99.730,353.600 99.400 C 353.600 99.070,353.330 98.800,353.000 98.800 C 352.670 98.800,352.400 99.051,352.400 99.357 M45.345 103.400 C 45.218 103.730,44.761 104.000,44.329 104.000 C 43.318 104.000,43.471 105.729,44.500 105.925 C 45.020 106.024,45.200 105.794,45.200 105.029 C 45.200 104.381,45.422 104.000,45.800 104.000 C 46.130 104.000,46.400 103.730,46.400 103.400 C 46.400 103.070,46.214 102.800,45.987 102.800 C 45.761 102.800,45.471 103.070,45.345 103.400 M222.600 103.344 C 232.030 105.866,236.543 114.026,237.563 130.400 C 237.789 134.030,238.277 141.513,238.648 147.029 C 239.391 158.069,239.323 158.894,237.585 159.951 C 235.785 161.045,221.243 161.982,219.884 161.092 C 218.756 160.353,217.852 157.583,218.209 155.960 C 218.451 154.859,218.120 147.852,217.173 134.000 C 216.955 130.810,216.601 125.320,216.386 121.800 C 216.172 118.280,215.801 113.308,215.561 110.752 C 214.865 103.316,216.410 101.689,222.600 103.344 M355.000 103.200 C 354.665 103.742,355.117 104.400,355.824 104.400 C 356.141 104.400,356.400 104.040,356.400 103.600 C 356.400 102.772,355.435 102.496,355.000 103.200 M356.656 104.278 C 356.178 104.756,356.398 105.600,357.000 105.600 C 357.330 105.600,357.600 105.341,357.600 105.024 C 357.600 104.355,357.029 103.904,356.656 104.278 M42.400 107.571 C 42.400 108.143,42.657 108.400,43.229 108.400 C 43.802 108.400,44.017 108.185,43.925 107.705 C 43.724 106.662,42.400 106.546,42.400 107.571 M357.600 107.600 C 357.600 108.040,357.840 108.400,358.133 108.400 C 358.886 108.400,359.181 108.015,358.930 107.361 C 358.603 106.510,357.600 106.690,357.600 107.600 M41.500 109.476 C 40.535 109.728,40.616 110.800,41.600 110.800 C 42.133 110.800,42.400 110.533,42.400 110.000 C 42.400 109.560,42.355 109.221,42.300 109.246 C 42.245 109.272,41.885 109.375,41.500 109.476 M359.062 110.183 C 358.896 110.615,359.071 110.800,359.646 110.800 C 360.102 110.800,360.396 110.589,360.308 110.325 C 360.061 109.584,359.324 109.500,359.062 110.183 M39.808 111.574 C 39.665 112.025,39.668 112.587,39.814 112.823 C 39.962 113.063,39.708 113.351,39.240 113.474 C 38.276 113.726,38.109 115.003,38.996 115.343 C 39.396 115.496,39.673 115.247,39.839 114.586 C 39.975 114.044,40.349 113.600,40.669 113.600 C 41.082 113.600,41.214 113.232,41.125 112.331 C 40.979 110.848,40.184 110.392,39.808 111.574 M360.667 111.067 C 360.163 111.571,360.401 112.400,361.049 112.400 C 361.547 112.400,361.594 112.275,361.252 111.863 C 361.007 111.568,360.925 111.208,361.070 111.063 C 361.215 110.918,361.243 110.800,361.133 110.800 C 361.023 110.800,360.813 110.920,360.667 111.067 M361.600 114.433 C 361.600 115.408,362.535 115.270,362.729 114.267 C 362.806 113.872,362.602 113.600,362.229 113.600 C 361.858 113.600,361.600 113.942,361.600 114.433 M37.228 116.747 C 36.796 117.556,37.022 118.000,37.867 118.000 C 38.169 118.000,38.400 117.567,38.400 117.000 C 38.400 115.821,37.794 115.690,37.228 116.747 M362.949 116.588 C 362.828 116.903,362.846 117.350,362.988 117.581 C 363.422 118.283,364.400 118.048,364.400 117.243 C 364.400 116.311,363.254 115.793,362.949 116.588 M35.600 119.800 C 35.600 120.593,35.776 120.825,36.300 120.724 C 36.685 120.650,37.000 120.234,37.000 119.800 C 37.000 119.366,36.685 118.950,36.300 118.876 C 35.776 118.775,35.600 119.007,35.600 119.800 M364.400 119.613 C 364.400 120.046,364.670 120.400,365.000 120.400 C 365.330 120.400,365.600 120.149,365.600 119.843 C 365.600 119.536,365.330 119.182,365.000 119.055 C 364.592 118.899,364.400 119.077,364.400 119.613 M34.400 122.600 C 34.400 123.638,35.364 124.010,35.698 123.100 C 35.974 122.351,35.607 121.600,34.967 121.600 C 34.629 121.600,34.400 122.004,34.400 122.600 M365.600 122.425 C 365.600 122.925,365.875 123.200,366.375 123.200 C 367.376 123.200,367.325 121.780,366.321 121.704 C 365.856 121.669,365.600 121.925,365.600 122.425 M33.265 124.351 C 32.526 124.820,32.845 126.562,33.700 126.725 C 34.261 126.832,34.400 126.575,34.400 125.429 C 34.400 123.960,34.193 123.763,33.265 124.351 M32.100 127.096 C 31.348 127.353,31.451 130.000,32.213 130.000 C 32.549 130.000,32.909 129.775,33.011 129.500 C 33.314 128.684,32.642 126.911,32.100 127.096 M368.400 128.767 C 368.400 129.258,368.658 129.600,369.029 129.600 C 369.402 129.600,369.606 129.328,369.529 128.933 C 369.335 127.930,368.400 127.792,368.400 128.767 M30.667 131.067 C 30.191 131.542,30.385 132.800,30.933 132.800 C 31.717 132.800,31.938 132.451,31.710 131.577 C 31.501 130.778,31.135 130.599,30.667 131.067 M369.600 131.800 C 369.600 132.431,369.826 132.800,370.213 132.800 C 371.048 132.800,371.448 131.603,370.758 131.166 C 369.858 130.596,369.600 130.737,369.600 131.800 M28.800 135.085 C 28.800 136.133,28.962 136.400,29.600 136.400 C 30.245 136.400,30.400 136.133,30.400 135.025 C 30.400 133.896,30.257 133.661,29.600 133.710 C 28.974 133.757,28.800 134.057,28.800 135.085 M371.200 134.380 C 371.200 134.795,371.091 135.419,370.957 135.767 C 370.783 136.222,370.954 136.400,371.564 136.400 C 372.259 136.400,372.396 136.185,372.322 135.210 C 372.222 133.898,371.200 133.142,371.200 134.380 M27.875 137.858 C 27.262 138.471,27.589 140.061,28.300 139.924 C 28.735 139.840,29.000 139.425,29.000 138.828 C 29.000 137.866,28.392 137.341,27.875 137.858 M372.667 137.867 C 372.118 138.415,372.389 140.400,373.013 140.400 C 373.464 140.400,373.600 140.032,373.531 139.000 C 373.439 137.633,373.206 137.327,372.667 137.867 M26.824 141.286 C 26.507 141.789,26.207 142.830,26.157 143.600 C 26.106 144.370,26.156 144.775,26.266 144.500 C 26.376 144.225,26.702 144.000,26.991 144.000 C 27.689 144.000,27.886 143.277,27.620 141.686 L 27.400 140.371 26.824 141.286 M373.766 142.143 C 373.403 143.091,373.748 144.200,374.405 144.200 C 374.796 144.200,375.000 143.799,375.000 143.033 C 375.000 141.769,374.146 141.153,373.766 142.143 M24.800 147.000 C 24.800 148.133,24.952 148.400,25.600 148.400 C 26.248 148.400,26.400 148.133,26.400 147.000 C 26.400 145.867,26.248 145.600,25.600 145.600 C 24.952 145.600,24.800 145.867,24.800 147.000 M375.200 146.967 C 375.200 148.000,375.375 148.400,375.825 148.400 C 376.287 148.400,376.418 148.069,376.325 147.131 C 376.144 145.297,375.200 145.159,375.200 146.967 M23.600 151.229 C 23.600 152.565,23.726 152.835,24.300 152.725 C 25.147 152.564,25.446 150.979,24.782 150.178 C 23.970 149.200,23.600 149.529,23.600 151.229 M376.400 151.200 C 376.400 152.533,376.533 152.800,377.200 152.800 C 378.024 152.800,378.283 151.604,377.757 150.233 C 377.260 148.936,376.400 149.549,376.400 151.200 M22.115 156.496 C 22.273 158.444,23.600 158.563,23.600 156.629 C 23.600 155.470,23.450 155.200,22.805 155.200 C 22.153 155.200,22.029 155.434,22.115 156.496 M377.875 155.458 C 377.195 156.138,377.599 158.000,378.425 158.000 C 379.112 158.000,379.230 157.787,379.125 156.731 C 379.003 155.492,378.427 154.906,377.875 155.458 M20.878 162.296 C 21.064 165.181,22.400 165.297,22.400 162.429 C 22.400 160.649,22.299 160.400,21.578 160.400 C 20.847 160.400,20.770 160.610,20.878 162.296 M379.200 162.200 C 379.200 163.533,379.356 164.000,379.800 164.000 C 380.244 164.000,380.400 163.533,380.400 162.200 C 380.400 160.867,380.244 160.400,379.800 160.400 C 379.356 160.400,379.200 160.867,379.200 162.200 M264.000 167.440 C 266.903 168.072,266.846 168.051,271.674 170.355 C 279.777 174.222,288.970 183.567,293.756 192.800 C 296.559 198.208,297.820 200.975,299.591 205.600 C 302.901 214.246,303.127 214.906,303.422 216.795 C 303.576 217.782,303.935 219.249,304.220 220.056 C 305.918 224.871,305.764 241.172,303.951 248.400 C 299.257 267.112,278.063 265.612,265.030 245.646 C 264.023 244.104,263.200 242.739,263.200 242.613 C 263.200 240.781,260.004 238.266,256.800 237.579 C 256.030 237.414,254.860 237.091,254.200 236.861 C 242.595 232.826,223.871 237.470,221.381 245.000 C 216.869 258.648,203.329 270.948,199.144 265.200 C 198.256 263.980,197.830 260.423,197.015 247.400 C 196.684 242.120,196.147 233.840,195.820 229.000 C 195.494 224.160,195.044 217.410,194.821 214.000 C 194.597 210.590,194.224 205.370,193.992 202.400 C 192.525 183.611,192.563 183.087,195.608 180.285 C 200.282 175.982,208.222 171.729,213.800 170.539 C 218.906 169.449,220.537 169.231,228.400 168.589 C 232.690 168.238,240.070 167.617,244.800 167.208 C 253.959 166.417,259.614 166.485,264.000 167.440 M19.679 169.269 C 19.803 171.393,20.533 172.270,20.987 170.840 C 21.373 169.625,20.804 167.200,20.135 167.200 C 19.691 167.200,19.586 167.678,19.679 169.269 M380.400 169.800 C 380.400 171.147,381.510 171.939,381.661 170.700 C 381.833 169.290,381.794 168.976,381.414 168.706 C 380.633 168.151,380.400 168.402,380.400 169.800 M18.547 175.506 C 18.275 175.682,18.095 177.000,18.097 178.800 C 18.099 180.450,18.183 181.575,18.283 181.300 C 18.384 181.025,18.722 180.800,19.033 180.800 C 19.468 180.800,19.600 180.149,19.600 178.000 C 19.600 175.253,19.458 174.916,18.547 175.506 M381.980 176.251 C 381.330 177.961,381.651 180.964,382.500 181.126 C 383.113 181.242,383.200 180.909,383.200 178.453 C 383.200 175.444,382.659 174.467,381.980 176.251 M263.731 189.358 C 261.516 191.263,262.856 195.600,265.661 195.600 C 268.962 195.600,270.124 190.512,267.171 188.985 C 265.617 188.182,265.024 188.246,263.731 189.358 M17.004 189.194 C 16.356 190.241,16.875 213.118,17.544 213.020 C 18.209 212.923,18.798 192.130,18.205 189.700 C 17.974 188.758,17.418 188.523,17.004 189.194 M383.173 198.500 C 383.120 211.921,383.204 213.272,384.016 211.988 C 384.704 210.900,384.500 191.600,383.800 191.600 C 383.291 191.600,383.196 192.645,383.173 198.500 M209.972 193.356 C 208.410 193.861,207.661 195.433,207.623 198.286 C 207.597 200.166,207.206 200.514,204.600 200.981 C 199.675 201.863,200.615 208.389,205.598 207.910 C 207.906 207.688,208.399 208.139,208.401 210.474 C 208.403 212.209,209.712 214.312,210.988 214.633 C 213.605 215.290,215.200 213.554,215.200 210.048 C 215.200 207.588,215.890 206.800,218.047 206.800 C 221.147 206.800,222.706 203.513,220.771 201.054 C 220.076 200.170,219.624 200.000,217.971 200.000 C 215.543 200.000,214.631 199.209,214.241 196.761 C 213.724 193.525,212.492 192.542,209.972 193.356 M270.870 196.526 C 269.650 197.824,269.678 200.358,270.926 201.530 C 273.140 203.610,276.400 201.866,276.400 198.602 C 276.400 196.018,272.664 194.615,270.870 196.526 M257.700 197.196 C 254.869 198.922,256.395 203.944,259.600 203.445 C 262.643 202.971,263.771 199.709,261.631 197.569 C 260.256 196.195,259.465 196.119,257.700 197.196 M265.400 203.673 C 264.081 204.446,263.626 205.311,263.613 207.071 C 263.590 210.047,266.824 211.503,268.796 209.404 C 271.259 206.783,268.382 201.927,265.400 203.673 M18.161 222.158 C 17.704 223.348,18.183 225.790,18.900 225.926 C 19.499 226.039,19.600 225.736,19.600 223.829 C 19.600 221.635,18.743 220.640,18.161 222.158 M381.875 222.258 C 381.523 222.611,381.568 225.177,381.944 226.131 C 382.206 226.796,382.278 226.776,382.747 225.900 C 383.635 224.240,382.912 221.221,381.875 222.258 M380.400 232.800 C 380.400 235.201,381.896 234.535,381.972 232.100 C 381.992 231.457,381.771 231.200,381.200 231.200 C 380.533 231.200,380.400 231.467,380.400 232.800 M19.600 232.967 C 19.600 234.638,19.961 235.671,20.442 235.374 C 21.089 234.974,20.873 231.600,20.200 231.600 C 19.784 231.600,19.600 232.019,19.600 232.967 M379.200 240.387 C 379.200 241.990,379.316 242.330,379.800 242.145 C 380.207 241.988,380.400 241.350,380.400 240.157 C 380.400 238.862,380.242 238.400,379.800 238.400 C 379.347 238.400,379.200 238.887,379.200 240.387 M20.868 240.382 C 20.971 243.021,22.400 242.976,22.400 240.333 C 22.400 239.069,22.260 238.800,21.603 238.800 C 20.931 238.800,20.815 239.048,20.868 240.382 M243.790 243.754 C 245.775 245.739,247.657 268.327,246.350 274.480 C 244.465 283.358,237.900 287.779,224.800 288.992 C 198.154 291.461,199.395 291.753,198.967 282.915 C 198.691 277.223,199.146 276.091,202.046 275.251 C 212.180 272.315,221.641 262.923,226.370 251.107 C 227.831 247.456,230.393 245.532,236.000 243.877 C 240.693 242.492,242.499 242.463,243.790 243.754 M22.080 245.583 C 22.016 246.420,22.226 246.893,22.795 247.197 C 23.540 247.596,23.600 247.508,23.600 246.014 C 23.600 243.980,22.232 243.592,22.080 245.583 M377.884 245.600 C 377.999 246.040,378.304 246.400,378.562 246.400 C 378.819 246.400,379.057 246.040,379.090 245.600 C 379.130 245.067,378.904 244.800,378.413 244.800 C 377.872 244.800,377.731 245.014,377.884 245.600 M23.600 250.557 C 23.600 251.802,24.647 252.228,24.941 251.103 C 25.206 250.092,24.955 249.600,24.176 249.600 C 23.835 249.600,23.600 249.990,23.600 250.557 M376.400 250.800 C 376.400 251.240,376.558 251.600,376.751 251.600 C 377.276 251.600,378.033 250.566,377.730 250.263 C 377.182 249.716,376.400 250.031,376.400 250.800 M24.919 255.500 C 25.069 257.538,26.400 257.607,26.400 255.576 C 26.400 254.676,26.217 254.400,25.619 254.400 C 25.014 254.400,24.856 254.648,24.919 255.500 M375.200 255.600 C 375.200 256.882,375.756 257.212,376.157 256.167 C 376.569 255.095,376.428 254.400,375.800 254.400 C 375.400 254.400,375.200 254.800,375.200 255.600 M26.256 258.709 C 25.907 259.274,26.426 260.725,27.065 260.969 C 27.517 261.143,27.622 260.905,27.525 259.928 C 27.403 258.691,26.690 258.007,26.256 258.709 M373.798 259.204 C 373.413 259.825,373.979 261.183,374.534 260.970 C 375.251 260.695,375.325 258.800,374.619 258.800 C 374.305 258.800,373.935 258.982,373.798 259.204 M27.679 263.600 C 27.729 264.265,28.000 264.800,28.285 264.800 C 28.591 264.800,28.800 264.312,28.800 263.600 C 28.800 262.794,28.601 262.400,28.194 262.400 C 27.766 262.400,27.614 262.754,27.679 263.600 M29.249 266.541 C 28.763 267.127,29.039 267.600,29.867 267.600 C 30.463 267.600,30.597 266.569,30.045 266.228 C 29.850 266.107,29.492 266.248,29.249 266.541 M371.200 267.000 C 371.200 267.330,371.470 267.600,371.800 267.600 C 372.130 267.600,372.400 267.330,372.400 267.000 C 372.400 266.670,372.130 266.400,371.800 266.400 C 371.470 266.400,371.200 266.670,371.200 267.000 M30.400 270.800 C 30.400 271.244,30.667 271.600,31.000 271.600 C 31.333 271.600,31.600 271.244,31.600 270.800 C 31.600 270.356,31.333 270.000,31.000 270.000 C 30.667 270.000,30.400 270.356,30.400 270.800 M369.600 270.800 C 369.600 271.749,370.609 271.874,370.957 270.967 C 371.309 270.050,371.281 270.000,370.400 270.000 C 369.867 270.000,369.600 270.267,369.600 270.800 M31.600 273.600 C 31.600 274.510,32.603 274.690,32.930 273.839 C 33.181 273.185,32.886 272.800,32.133 272.800 C 31.840 272.800,31.600 273.160,31.600 273.600 M368.400 273.600 C 368.400 274.044,368.667 274.400,369.000 274.400 C 369.333 274.400,369.600 274.044,369.600 273.600 C 369.600 273.156,369.333 272.800,369.000 272.800 C 368.667 272.800,368.400 273.156,368.400 273.600 M367.200 276.649 C 367.200 277.180,367.309 277.208,367.800 276.800 C 368.130 276.526,368.400 276.234,368.400 276.151 C 368.400 276.068,368.130 276.000,367.800 276.000 C 367.470 276.000,367.200 276.292,367.200 276.649 M365.600 280.200 C 365.600 280.993,365.776 281.225,366.300 281.124 C 366.685 281.050,367.000 280.634,367.000 280.200 C 367.000 279.766,366.685 279.350,366.300 279.276 C 365.776 279.175,365.600 279.407,365.600 280.200 M364.472 282.902 C 364.611 283.878,365.326 283.994,365.520 283.071 C 365.585 282.758,365.348 282.389,364.992 282.252 C 364.496 282.062,364.375 282.214,364.472 282.902 M35.733 283.000 C 35.733 283.330,35.973 283.600,36.267 283.600 C 36.560 283.600,36.800 283.330,36.800 283.000 C 36.800 282.670,36.560 282.400,36.267 282.400 C 35.973 282.400,35.733 282.670,35.733 283.000 M37.070 285.063 C 36.767 285.366,37.524 286.400,38.049 286.400 C 38.242 286.400,38.400 286.040,38.400 285.600 C 38.400 284.831,37.618 284.516,37.070 285.063 M363.050 285.119 C 362.734 285.631,363.467 286.529,363.955 286.228 C 364.597 285.831,364.502 284.800,363.824 284.800 C 363.507 284.800,363.158 284.944,363.050 285.119 M38.400 288.157 C 38.400 288.464,38.670 288.818,39.000 288.945 C 39.408 289.101,39.600 288.923,39.600 288.387 C 39.600 287.954,39.330 287.600,39.000 287.600 C 38.670 287.600,38.400 287.851,38.400 288.157 M360.400 289.849 C 360.400 290.380,360.509 290.408,361.000 290.000 C 361.330 289.726,361.600 289.434,361.600 289.351 C 361.600 289.268,361.330 289.200,361.000 289.200 C 360.670 289.200,360.400 289.492,360.400 289.849 M358.989 292.017 C 358.859 292.228,358.864 292.580,359.000 292.800 C 359.375 293.407,360.267 293.278,360.267 292.617 C 360.267 291.919,359.324 291.476,358.989 292.017 M41.067 292.267 C 40.594 292.740,40.781 293.028,41.600 293.090 C 42.057 293.124,42.400 292.904,42.400 292.575 C 42.400 291.986,41.545 291.788,41.067 292.267 M42.471 295.067 C 42.665 296.070,43.600 296.208,43.600 295.233 C 43.600 294.742,43.342 294.400,42.971 294.400 C 42.598 294.400,42.394 294.672,42.471 295.067 M357.600 295.229 C 357.600 295.787,357.817 296.016,358.262 295.929 C 359.226 295.741,359.316 294.400,358.365 294.400 C 357.858 294.400,357.600 294.679,357.600 295.229 M44.875 299.095 C 45.076 300.138,46.400 300.254,46.400 299.229 C 46.400 298.657,46.143 298.400,45.571 298.400 C 44.998 298.400,44.783 298.615,44.875 299.095 M355.012 298.780 C 354.883 298.989,355.125 299.346,355.550 299.573 C 356.210 299.926,356.291 299.871,356.114 299.193 C 355.892 298.345,355.396 298.159,355.012 298.780 M47.868 302.967 C 47.748 303.279,47.924 303.639,48.258 303.767 C 49.148 304.108,49.200 304.077,49.200 303.200 C 49.200 302.287,48.196 302.111,47.868 302.967 M352.400 303.449 C 352.400 303.980,352.509 304.008,353.000 303.600 C 353.330 303.326,353.600 303.034,353.600 302.951 C 353.600 302.868,353.330 302.800,353.000 302.800 C 352.670 302.800,352.400 303.092,352.400 303.449 M50.578 306.835 C 50.166 307.502,51.093 308.267,51.645 307.715 C 52.107 307.253,51.818 306.400,51.200 306.400 C 51.006 306.400,50.726 306.596,50.578 306.835 M349.600 307.400 C 349.600 307.812,349.862 308.008,350.300 307.924 C 351.143 307.761,351.090 307.052,350.221 306.871 C 349.859 306.795,349.600 307.016,349.600 307.400 M346.800 311.200 C 346.800 311.644,346.533 312.000,346.200 312.000 C 345.854 312.000,345.600 312.362,345.600 312.856 C 345.600 313.637,345.721 313.594,346.971 312.372 C 348.339 311.035,348.469 310.400,347.376 310.400 C 347.059 310.400,346.800 310.760,346.800 311.200 M53.930 311.726 C 54.409 312.235,54.800 312.887,54.800 313.175 C 54.800 313.594,54.919 313.599,55.400 313.200 C 56.234 312.508,56.149 312.000,55.200 312.000 C 54.756 312.000,54.400 311.733,54.400 311.400 C 54.400 311.070,54.099 310.800,53.730 310.800 C 53.162 310.800,53.192 310.940,53.930 311.726 M57.200 316.600 C 57.200 316.930,57.470 317.200,57.800 317.200 C 58.130 317.200,58.400 317.476,58.400 317.813 C 58.400 318.149,58.670 318.529,59.000 318.655 C 59.330 318.782,59.600 319.098,59.600 319.358 C 59.600 319.617,59.960 319.857,60.400 319.890 C 60.857 319.924,61.200 319.704,61.200 319.375 C 61.200 319.059,60.930 318.800,60.600 318.800 C 60.267 318.800,60.000 318.444,60.000 318.000 C 60.000 317.467,59.733 317.200,59.200 317.200 C 58.756 317.200,58.400 316.933,58.400 316.600 C 58.400 316.270,58.130 316.000,57.800 316.000 C 57.470 316.000,57.200 316.270,57.200 316.600 M341.600 317.967 C 341.600 318.458,341.858 318.800,342.229 318.800 C 342.602 318.800,342.806 318.528,342.729 318.133 C 342.535 317.130,341.600 316.992,341.600 317.967 M333.600 327.400 C 333.600 327.744,333.239 328.000,332.753 328.000 C 332.104 328.000,331.955 328.186,332.116 328.800 C 332.271 329.393,332.128 329.600,331.563 329.600 C 331.143 329.600,330.800 329.870,330.800 330.200 C 330.800 330.530,330.530 330.800,330.200 330.800 C 329.870 330.800,329.600 331.070,329.600 331.400 C 329.600 331.733,329.244 332.000,328.800 332.000 C 328.267 332.000,328.000 332.267,328.000 332.800 C 328.000 333.240,327.751 333.600,327.447 333.600 C 327.142 333.600,326.794 333.978,326.674 334.440 C 326.553 334.903,326.262 335.162,326.027 335.017 C 325.792 334.872,325.600 334.933,325.600 335.153 C 325.600 335.842,326.305 336.024,326.546 335.398 C 326.672 335.069,327.030 334.800,327.341 334.800 C 327.652 334.800,328.002 334.435,328.119 333.989 C 328.236 333.542,328.563 333.227,328.847 333.289 C 329.131 333.350,329.375 333.220,329.389 333.000 C 329.430 332.332,330.940 330.800,331.556 330.800 C 331.873 330.800,332.028 330.695,331.900 330.567 C 331.772 330.439,332.372 329.650,333.234 328.814 C 334.941 327.157,335.112 326.800,334.200 326.800 C 333.870 326.800,333.600 327.070,333.600 327.400 M68.000 328.533 C 68.000 328.827,68.270 329.067,68.600 329.067 C 68.930 329.067,69.200 328.827,69.200 328.533 C 69.200 328.240,68.930 328.000,68.600 328.000 C 68.270 328.000,68.000 328.240,68.000 328.533 M69.600 330.200 C 69.600 330.530,69.780 330.800,70.000 330.800 C 70.220 330.800,70.400 330.530,70.400 330.200 C 70.400 329.870,70.220 329.600,70.000 329.600 C 69.780 329.600,69.600 329.870,69.600 330.200 M70.598 331.203 C 70.461 331.424,70.676 331.726,71.075 331.873 C 71.474 332.020,71.944 332.378,72.120 332.670 C 72.551 333.384,73.200 333.342,73.200 332.600 C 73.200 332.270,72.930 332.000,72.600 332.000 C 72.270 332.000,72.000 331.730,72.000 331.400 C 72.000 330.726,70.982 330.583,70.598 331.203 M81.502 340.666 C 81.779 340.777,81.900 341.037,81.773 341.244 C 81.645 341.451,81.779 341.570,82.070 341.510 C 82.362 341.449,82.550 341.641,82.489 341.934 C 82.427 342.228,82.742 342.564,83.189 342.681 C 83.635 342.798,84.000 343.142,84.000 343.447 C 84.000 343.751,84.360 344.000,84.800 344.000 C 85.244 344.000,85.600 343.733,85.600 343.400 C 85.600 343.067,85.244 342.800,84.800 342.800 C 84.356 342.800,84.000 342.533,84.000 342.200 C 84.000 341.870,83.730 341.600,83.400 341.600 C 83.070 341.600,82.800 341.330,82.800 341.000 C 82.800 340.635,82.447 340.412,81.900 340.432 C 81.405 340.449,81.226 340.554,81.502 340.666 M317.300 342.100 C 317.392 342.375,317.707 342.600,318.000 342.600 C 318.293 342.600,318.608 342.375,318.700 342.100 C 318.799 341.803,318.516 341.600,318.000 341.600 C 317.484 341.600,317.201 341.803,317.300 342.100 M316.000 343.600 C 316.000 344.040,316.084 344.400,316.186 344.400 C 316.288 344.400,316.565 344.040,316.800 343.600 C 317.142 342.961,317.104 342.800,316.614 342.800 C 316.267 342.800,316.000 343.147,316.000 343.600 M89.600 347.600 C 89.835 348.040,90.202 348.400,90.414 348.400 C 90.626 348.400,90.800 348.040,90.800 347.600 C 90.800 347.062,90.533 346.800,89.986 346.800 C 89.296 346.800,89.237 346.922,89.600 347.600 M310.800 347.357 C 310.800 347.664,311.070 348.018,311.400 348.145 C 311.808 348.301,312.000 348.123,312.000 347.587 C 312.000 347.154,311.730 346.800,311.400 346.800 C 311.070 346.800,310.800 347.051,310.800 347.357 M94.800 351.357 C 94.800 351.664,95.070 352.018,95.400 352.145 C 95.808 352.301,96.000 352.123,96.000 351.587 C 96.000 351.154,95.730 350.800,95.400 350.800 C 95.070 350.800,94.800 351.051,94.800 351.357 M305.200 351.587 C 305.200 352.104,305.396 352.300,305.769 352.157 C 306.715 351.793,306.875 350.800,305.987 350.800 C 305.471 350.800,305.200 351.071,305.200 351.587 M98.800 354.157 C 98.800 354.464,99.070 354.818,99.400 354.945 C 99.808 355.101,100.000 354.923,100.000 354.387 C 100.000 353.954,99.730 353.600,99.400 353.600 C 99.070 353.600,98.800 353.851,98.800 354.157 M301.200 354.433 C 301.200 355.408,302.135 355.270,302.329 354.267 C 302.406 353.872,302.202 353.600,301.829 353.600 C 301.458 353.600,301.200 353.942,301.200 354.433 M102.892 356.875 C 103.139 357.617,104.000 357.740,104.000 357.033 C 104.000 356.685,103.715 356.400,103.367 356.400 C 103.018 356.400,102.805 356.614,102.892 356.875 M105.300 358.100 C 105.552 358.857,106.800 358.964,106.800 358.229 C 106.800 357.858,106.458 357.600,105.967 357.600 C 105.478 357.600,105.202 357.807,105.300 358.100 M294.655 358.200 C 294.782 358.530,295.106 358.800,295.376 358.800 C 295.646 358.800,295.867 358.530,295.867 358.200 C 295.867 357.870,295.542 357.600,295.146 357.600 C 294.670 357.600,294.503 357.803,294.655 358.200 M109.600 361.000 C 109.600 361.330,109.870 361.600,110.200 361.600 C 110.530 361.600,110.800 361.330,110.800 361.000 C 110.800 360.670,110.530 360.400,110.200 360.400 C 109.870 360.400,109.600 360.670,109.600 361.000 M112.400 362.157 C 112.400 362.464,112.670 362.818,113.000 362.945 C 113.408 363.101,113.600 362.923,113.600 362.387 C 113.600 361.954,113.330 361.600,113.000 361.600 C 112.670 361.600,112.400 361.851,112.400 362.157 M288.000 362.449 C 288.000 363.158,288.099 363.216,288.600 362.800 C 288.930 362.526,289.200 362.144,289.200 361.951 C 289.200 361.758,288.930 361.600,288.600 361.600 C 288.255 361.600,288.000 361.961,288.000 362.449 M115.000 363.200 C 114.665 363.742,115.117 364.400,115.824 364.400 C 116.141 364.400,116.400 364.040,116.400 363.600 C 116.400 362.772,115.435 362.496,115.000 363.200 M285.200 363.646 C 285.200 364.102,285.411 364.396,285.675 364.308 C 286.416 364.061,286.500 363.324,285.817 363.062 C 285.385 362.896,285.200 363.071,285.200 363.646 M117.600 365.000 C 117.600 365.330,117.870 365.600,118.200 365.600 C 118.530 365.600,118.800 365.330,118.800 365.000 C 118.800 364.670,118.530 364.400,118.200 364.400 C 117.870 364.400,117.600 364.670,117.600 365.000 M282.400 365.000 C 282.400 365.330,282.670 365.600,283.000 365.600 C 283.330 365.600,283.600 365.330,283.600 365.000 C 283.600 364.670,283.330 364.400,283.000 364.400 C 282.670 364.400,282.400 364.670,282.400 365.000 M120.133 366.200 C 120.133 366.530,120.463 366.800,120.867 366.800 C 121.270 366.800,121.600 366.530,121.600 366.200 C 121.600 365.870,121.270 365.600,120.867 365.600 C 120.463 365.600,120.133 365.870,120.133 366.200 M279.600 366.176 C 279.600 367.011,280.430 367.397,280.839 366.751 C 281.381 365.895,281.268 365.600,280.400 365.600 C 279.960 365.600,279.600 365.859,279.600 366.176 M122.800 367.800 C 122.800 368.133,123.156 368.400,123.600 368.400 C 124.044 368.400,124.400 368.133,124.400 367.800 C 124.400 367.467,124.044 367.200,123.600 367.200 C 123.156 367.200,122.800 367.467,122.800 367.800 M276.800 367.800 C 276.800 368.130,276.958 368.400,277.151 368.400 C 277.344 368.400,277.726 368.130,278.000 367.800 C 278.416 367.299,278.358 367.200,277.649 367.200 C 277.161 367.200,276.800 367.455,276.800 367.800 M125.700 368.900 C 125.952 369.657,127.200 369.764,127.200 369.029 C 127.200 368.658,126.858 368.400,126.367 368.400 C 125.878 368.400,125.602 368.607,125.700 368.900 M270.400 370.176 C 270.400 370.493,270.560 370.851,270.755 370.972 C 271.195 371.244,272.092 370.225,271.730 369.863 C 271.254 369.387,270.400 369.588,270.400 370.176 M132.830 371.182 C 132.198 371.572,132.602 372.400,133.424 372.400 C 134.032 372.400,134.225 371.386,133.681 371.050 C 133.505 370.942,133.122 371.001,132.830 371.182 M267.600 371.800 C 267.600 372.130,267.870 372.400,268.200 372.400 C 268.530 372.400,268.800 372.130,268.800 371.800 C 268.800 371.470,268.530 371.200,268.200 371.200 C 267.870 371.200,267.600 371.470,267.600 371.800 M136.400 373.233 C 136.400 374.208,137.335 374.070,137.529 373.067 C 137.606 372.672,137.402 372.400,137.029 372.400 C 136.658 372.400,136.400 372.742,136.400 373.233 M263.600 373.049 C 263.600 373.604,263.701 373.621,264.300 373.162 C 264.685 372.867,265.075 372.575,265.167 372.513 C 265.258 372.451,264.943 372.400,264.467 372.400 C 263.934 372.400,263.600 372.650,263.600 373.049 M139.000 374.000 C 138.569 374.697,139.214 375.213,140.275 375.021 C 141.519 374.795,141.761 374.584,141.416 374.027 C 141.083 373.487,139.329 373.468,139.000 374.000 M260.628 373.955 C 260.507 374.150,260.661 374.518,260.969 374.774 C 261.592 375.292,262.231 374.697,261.800 374.000 C 261.494 373.505,260.920 373.483,260.628 373.955 M143.064 375.822 C 143.345 376.556,145.253 376.460,145.502 375.700 C 145.613 375.363,145.203 375.200,144.246 375.200 C 143.125 375.200,142.876 375.331,143.064 375.822 M256.400 375.800 C 256.400 376.130,256.648 376.400,256.951 376.400 C 257.254 376.400,257.726 376.130,258.000 375.800 C 258.421 375.293,258.336 375.200,257.449 375.200 C 256.783 375.200,256.400 375.419,256.400 375.800 M147.200 377.000 C 147.200 377.330,147.380 377.620,147.600 377.644 C 149.291 377.832,149.807 377.709,149.926 377.089 C 150.032 376.541,149.767 376.400,148.629 376.400 C 147.625 376.400,147.200 376.579,147.200 377.000 M251.600 376.957 C 251.600 377.264,251.910 377.633,252.288 377.778 C 252.666 377.924,252.848 377.914,252.691 377.758 C 252.535 377.602,252.607 377.232,252.852 376.937 C 253.201 376.516,253.114 376.400,252.449 376.400 C 251.982 376.400,251.600 376.651,251.600 376.957 M152.667 377.867 C 151.963 378.570,152.481 379.200,153.763 379.200 C 154.928 379.200,155.095 379.084,154.916 378.400 C 154.712 377.622,153.256 377.277,152.667 377.867 M247.108 377.825 C 246.641 378.292,247.278 379.200,248.072 379.200 C 248.604 379.200,248.815 378.975,248.725 378.505 C 248.588 377.796,247.567 377.367,247.108 377.825 M157.893 379.120 C 157.284 379.194,156.892 379.425,157.021 379.634 C 157.150 379.842,157.423 379.909,157.628 379.783 C 157.832 379.656,158.000 379.743,158.000 379.976 C 158.000 380.209,158.540 380.400,159.200 380.400 C 159.955 380.400,160.400 380.195,160.400 379.847 C 160.400 379.202,159.459 378.930,157.893 379.120 M240.933 379.820 C 240.933 380.270,241.264 380.408,242.136 380.320 C 243.877 380.146,244.016 379.200,242.300 379.200 C 241.332 379.200,240.933 379.381,240.933 379.820 M163.200 381.000 C 163.200 381.630,163.379 381.700,165.000 381.700 C 166.621 381.700,166.800 381.630,166.800 381.000 C 166.800 380.556,166.333 380.400,165.000 380.400 C 163.667 380.400,163.200 380.556,163.200 381.000 M234.400 381.000 C 234.400 381.563,234.751 381.700,236.200 381.700 C 237.649 381.700,238.000 381.563,238.000 381.000 C 238.000 380.556,237.533 380.400,236.200 380.400 C 234.867 380.400,234.400 380.556,234.400 381.000 M170.212 381.981 C 169.690 382.825,170.502 383.200,172.853 383.200 C 174.928 383.200,175.240 383.104,175.125 382.500 C 174.971 381.689,170.673 381.235,170.212 381.981 M226.600 382.000 C 226.163 382.706,226.811 383.200,228.175 383.200 C 229.705 383.200,230.830 382.251,229.777 381.847 C 228.780 381.464,226.875 381.556,226.600 382.000 M181.322 383.065 C 178.515 383.466,180.263 384.400,183.819 384.400 C 186.789 384.400,188.140 384.007,187.472 383.338 C 187.174 383.041,182.839 382.848,181.322 383.065 M213.700 383.700 C 213.814 384.043,214.849 384.200,217.000 384.200 C 219.151 384.200,220.186 384.043,220.300 383.700 C 220.425 383.326,219.596 383.200,217.000 383.200 C 214.404 383.200,213.575 383.326,213.700 383.700 " stroke="none" fill="#b3fbfc" fill-rule="evenodd"></path></g></svg>